G04 #@! TF.FileFunction,Copper,L2,Bot,Signal*
%FSLAX46Y46*%
G04 Gerber Fmt 4.6, Leading zero omitted, Abs format (unit mm)*
G04 Created by KiCad (PCBNEW 4.0.7) date 05/16/18 21:08:28*
%MOMM*%
%LPD*%
G01*
G04 APERTURE LIST*
%ADD10C,0.100000*%
%ADD11C,1.524000*%
%ADD12R,1.000000X0.800000*%
%ADD13R,1.700000X1.700000*%
%ADD14O,1.700000X1.700000*%
%ADD15C,1.400000*%
%ADD16O,1.400000X1.400000*%
%ADD17R,1.560000X0.650000*%
%ADD18C,1.300000*%
%ADD19O,1.200000X3.100000*%
%ADD20O,3.100000X1.200000*%
%ADD21C,1.600000*%
%ADD22C,0.600000*%
%ADD23C,0.500000*%
%ADD24C,0.250000*%
%ADD25C,0.300000*%
%ADD26C,0.254000*%
G04 APERTURE END LIST*
D10*
D11*
X121300000Y-81600000D03*
X121300000Y-77600000D03*
X128600000Y-77600000D03*
X128600000Y-81600000D03*
D12*
X122550000Y-92900000D03*
X120850000Y-92900000D03*
X127350000Y-109500000D03*
X125650000Y-109500000D03*
X108150000Y-111500000D03*
X109850000Y-111500000D03*
X108150000Y-109500000D03*
X109850000Y-109500000D03*
X127350000Y-111500000D03*
X125650000Y-111500000D03*
D13*
X104500000Y-111600000D03*
D14*
X101960000Y-111600000D03*
X104500000Y-109060000D03*
X101960000Y-109060000D03*
X104500000Y-106520000D03*
X101960000Y-106520000D03*
X104500000Y-103980000D03*
X101960000Y-103980000D03*
X104500000Y-101440000D03*
X101960000Y-101440000D03*
X104500000Y-98900000D03*
X101960000Y-98900000D03*
X104500000Y-96360000D03*
X101960000Y-96360000D03*
X104500000Y-93820000D03*
X101960000Y-93820000D03*
X104500000Y-91280000D03*
X101960000Y-91280000D03*
X104500000Y-88740000D03*
X101960000Y-88740000D03*
X104500000Y-86200000D03*
X101960000Y-86200000D03*
X104500000Y-83660000D03*
X101960000Y-83660000D03*
X104500000Y-81120000D03*
X101960000Y-81120000D03*
X104500000Y-78580000D03*
X101960000Y-78580000D03*
X104500000Y-76040000D03*
X101960000Y-76040000D03*
X104500000Y-73500000D03*
X101960000Y-73500000D03*
X104500000Y-70960000D03*
X101960000Y-70960000D03*
X104500000Y-68420000D03*
X101960000Y-68420000D03*
X104500000Y-65880000D03*
X101960000Y-65880000D03*
X104500000Y-63340000D03*
X101960000Y-63340000D03*
D15*
X123800000Y-85200000D03*
D16*
X123800000Y-77580000D03*
D15*
X126200000Y-85200000D03*
D16*
X126200000Y-77580000D03*
D17*
X112650000Y-111450000D03*
X112650000Y-110500000D03*
X112650000Y-109550000D03*
X115350000Y-109550000D03*
X115350000Y-111450000D03*
X122850000Y-109550000D03*
X122850000Y-110500000D03*
X122850000Y-111450000D03*
X120150000Y-111450000D03*
X120150000Y-109550000D03*
D18*
X123950000Y-66500000D03*
D19*
X118950000Y-66500000D03*
X121450000Y-66500000D03*
X126450000Y-66500000D03*
X128950000Y-66500000D03*
D20*
X123950000Y-61500000D03*
D18*
X118950000Y-61500000D03*
X128950000Y-61500000D03*
X128950000Y-71500000D03*
X118950000Y-71500000D03*
D21*
X123950000Y-71500000D03*
X121450000Y-71500000D03*
X126450000Y-71500000D03*
X126450000Y-74000000D03*
X123950000Y-74000000D03*
X121450000Y-74000000D03*
D22*
X127050000Y-102500000D03*
X127050000Y-97008000D03*
X106250000Y-110050000D03*
X106600000Y-113900000D03*
X117400000Y-92450000D03*
X122750000Y-90400000D03*
X125450000Y-90400000D03*
X121050000Y-90400000D03*
X108950000Y-110450000D03*
X128200000Y-112400000D03*
X120100000Y-96200000D03*
X123650000Y-95700000D03*
X118950000Y-112700000D03*
X122850000Y-92950000D03*
X120450000Y-93450000D03*
X116600000Y-77050000D03*
X116000000Y-91400000D03*
X116600000Y-93950000D03*
X116600000Y-99000000D03*
X119150000Y-87350000D03*
X116550000Y-102200000D03*
X108000000Y-91300000D03*
X115300000Y-108200000D03*
X115400000Y-84000000D03*
X107950000Y-83650000D03*
X117900000Y-81200000D03*
X122850000Y-87650000D03*
X123600000Y-86850000D03*
X106850000Y-94250000D03*
X117150000Y-112100000D03*
X118000000Y-112400000D03*
X120300000Y-107650000D03*
D23*
X127050000Y-102500000D02*
X127000000Y-102500000D01*
D24*
X127042000Y-97000000D02*
X127000000Y-97000000D01*
X127050000Y-97008000D02*
X127042000Y-97000000D01*
D23*
X108150000Y-110500000D02*
X106700000Y-110500000D01*
X106700000Y-110500000D02*
X106250000Y-110050000D01*
X122850000Y-110500000D02*
X121850000Y-110500000D01*
X121850000Y-110500000D02*
X121450000Y-110900000D01*
X121450000Y-110900000D02*
X121450000Y-112150000D01*
X121450000Y-112150000D02*
X119700000Y-113900000D01*
X119700000Y-113900000D02*
X106600000Y-113900000D01*
X108150000Y-110500000D02*
X108900000Y-110500000D01*
X108900000Y-110500000D02*
X108950000Y-110450000D01*
X121050000Y-90400000D02*
X122750000Y-90400000D01*
X122750000Y-90400000D02*
X125450000Y-90400000D01*
X112650000Y-110500000D02*
X116850000Y-110500000D01*
X116850000Y-110500000D02*
X117950000Y-109400000D01*
X117950000Y-109400000D02*
X117950000Y-103000000D01*
X117950000Y-103000000D02*
X117400000Y-102450000D01*
X117400000Y-102450000D02*
X117400000Y-92450000D01*
X119450000Y-90400000D02*
X121050000Y-90400000D01*
X117400000Y-92450000D02*
X119450000Y-90400000D01*
X112650000Y-110500000D02*
X109000000Y-110500000D01*
X109000000Y-110500000D02*
X108950000Y-110450000D01*
X127350000Y-111500000D02*
X127350000Y-111550000D01*
X127350000Y-111550000D02*
X128200000Y-112400000D01*
X122850000Y-110500000D02*
X126350000Y-110500000D01*
X126350000Y-110500000D02*
X127350000Y-111500000D01*
X127350000Y-111500000D02*
X127350000Y-109500000D01*
X108150000Y-111250000D02*
X108150000Y-111500000D01*
X108150000Y-111500000D02*
X108150000Y-110500000D01*
X108150000Y-110500000D02*
X108150000Y-109500000D01*
X120100000Y-96200000D02*
X120600000Y-95700000D01*
X120600000Y-95700000D02*
X123650000Y-95700000D01*
X120150000Y-111450000D02*
X119150000Y-111450000D01*
X118950000Y-111650000D02*
X118950000Y-112700000D01*
X119150000Y-111450000D02*
X118950000Y-111650000D01*
X121300000Y-77600000D02*
X120950000Y-77600000D01*
X120950000Y-77600000D02*
X120150000Y-76800000D01*
X118950000Y-69150000D02*
X118950000Y-66500000D01*
X120150000Y-70350000D02*
X118950000Y-69150000D01*
X120150000Y-76800000D02*
X120150000Y-70350000D01*
X121300000Y-77600000D02*
X123780000Y-77600000D01*
X123780000Y-77600000D02*
X123800000Y-77580000D01*
X118900000Y-66500000D02*
X121400000Y-66500000D01*
X128600000Y-77600000D02*
X128600000Y-74200000D01*
X128950000Y-69100000D02*
X128950000Y-66500000D01*
X127750000Y-70300000D02*
X128950000Y-69100000D01*
X127750000Y-73350000D02*
X127750000Y-70300000D01*
X128600000Y-74200000D02*
X127750000Y-73350000D01*
X126200000Y-77580000D02*
X128580000Y-77580000D01*
X128580000Y-77580000D02*
X128600000Y-77600000D01*
X126400000Y-66500000D02*
X128900000Y-66500000D01*
D25*
X122850000Y-92950000D02*
X122800000Y-92900000D01*
X122800000Y-92900000D02*
X122550000Y-92900000D01*
X120450000Y-93450000D02*
X120850000Y-93050000D01*
X120850000Y-93050000D02*
X120850000Y-92900000D01*
D23*
X116600000Y-92450000D02*
X116600000Y-77050000D01*
X116450000Y-91900000D02*
X116450000Y-91850000D01*
X116450000Y-91850000D02*
X116000000Y-91400000D01*
X117400000Y-90950000D02*
X116450000Y-91900000D01*
X117400000Y-89100000D02*
X117400000Y-90950000D01*
X119150000Y-87350000D02*
X117400000Y-89100000D01*
X116550000Y-102200000D02*
X116600000Y-102150000D01*
X116600000Y-102150000D02*
X116600000Y-99000000D01*
X116600000Y-99000000D02*
X116600000Y-93950000D01*
X116600000Y-93950000D02*
X116600000Y-92450000D01*
X116600000Y-92450000D02*
X116600000Y-92050000D01*
X116600000Y-92050000D02*
X116450000Y-91900000D01*
X116450000Y-91900000D02*
X116350000Y-91800000D01*
X113900000Y-91800000D02*
X115450000Y-91800000D01*
X115450000Y-91800000D02*
X116350000Y-91800000D01*
X108500000Y-91800000D02*
X113900000Y-91800000D01*
X108000000Y-91300000D02*
X108500000Y-91800000D01*
X113900000Y-91800000D02*
X114050000Y-91800000D01*
X114050000Y-91800000D02*
X113900000Y-91800000D01*
X115350000Y-109550000D02*
X115350000Y-108250000D01*
X115350000Y-108250000D02*
X115300000Y-108200000D01*
X109900000Y-109550000D02*
X109850000Y-109500000D01*
X112650000Y-109550000D02*
X109900000Y-109550000D01*
X125600000Y-111450000D02*
X125650000Y-111500000D01*
X122850000Y-111450000D02*
X125600000Y-111450000D01*
D25*
X104500000Y-88740000D02*
X106160000Y-88740000D01*
X110900000Y-84000000D02*
X115400000Y-84000000D01*
X106160000Y-88740000D02*
X110900000Y-84000000D01*
X104500000Y-86200000D02*
X107000000Y-86200000D01*
X107950000Y-85250000D02*
X107950000Y-83650000D01*
X107000000Y-86200000D02*
X107950000Y-85250000D01*
D23*
X117900000Y-82700000D02*
X117900000Y-81200000D01*
X122850000Y-87650000D02*
X117900000Y-82700000D01*
X101960000Y-63340000D02*
X103350000Y-61950000D01*
X112848059Y-67763485D02*
X112858975Y-67765977D01*
X112798353Y-67784796D02*
X112815859Y-67770835D01*
X103350000Y-61950000D02*
X107050000Y-61950000D01*
X112777349Y-67792146D02*
X112788265Y-67789654D01*
X112088161Y-67122579D02*
X112093019Y-67132666D01*
X107050000Y-61950000D02*
X112100000Y-67000000D01*
X112100000Y-67000000D02*
X112106980Y-67008753D01*
X112858975Y-67765977D02*
X112869062Y-67770835D01*
X112100000Y-67141420D02*
X112736396Y-67777816D01*
X112088161Y-67089551D02*
X112085669Y-67100467D01*
X112106980Y-67008753D02*
X112111838Y-67018841D01*
X112111838Y-67018841D02*
X112114330Y-67029757D01*
X112114330Y-67029757D02*
X112114330Y-67040953D01*
X119700000Y-82950000D02*
X123600000Y-86850000D01*
X112114330Y-67040953D02*
X112111838Y-67051869D01*
X112111838Y-67051869D02*
X112106980Y-67061956D01*
X112877816Y-67777816D02*
X117750000Y-72650000D01*
X112106980Y-67061956D02*
X112093019Y-67079463D01*
X112093019Y-67079463D02*
X112088161Y-67089551D01*
X112085669Y-67100467D02*
X112085669Y-67111663D01*
X112085669Y-67111663D02*
X112088161Y-67122579D01*
X112093019Y-67132666D02*
X112100000Y-67141420D01*
X117750000Y-72650000D02*
X117750000Y-79350000D01*
X112736396Y-67777816D02*
X112745149Y-67784796D01*
X112745149Y-67784796D02*
X112755237Y-67789654D01*
X112755237Y-67789654D02*
X112766153Y-67792146D01*
X112766153Y-67792146D02*
X112777349Y-67792146D01*
X112788265Y-67789654D02*
X112798353Y-67784796D01*
X112815859Y-67770835D02*
X112825947Y-67765977D01*
X112825947Y-67765977D02*
X112836863Y-67763485D01*
X112836863Y-67763485D02*
X112848059Y-67763485D01*
X112869062Y-67770835D02*
X112877816Y-67777816D01*
X117750000Y-79350000D02*
X119700000Y-81300000D01*
X119700000Y-81300000D02*
X119700000Y-82950000D01*
D25*
X104500000Y-103980000D02*
X104500000Y-103450000D01*
X104500000Y-103450000D02*
X106400000Y-101550000D01*
X106400000Y-101550000D02*
X106400000Y-94700000D01*
X106400000Y-94700000D02*
X106850000Y-94250000D01*
D23*
X116500000Y-111450000D02*
X115350000Y-111450000D01*
X117150000Y-112100000D02*
X116500000Y-111450000D01*
X101960000Y-111600000D02*
X102100000Y-111600000D01*
X102100000Y-111600000D02*
X103450000Y-112950000D01*
X117450000Y-112950000D02*
X118000000Y-112400000D01*
X103450000Y-112950000D02*
X117450000Y-112950000D01*
X120150000Y-107800000D02*
X120150000Y-109550000D01*
X120300000Y-107650000D02*
X120150000Y-107800000D01*
X101960000Y-111600000D02*
X101960000Y-112060000D01*
X101960000Y-111600000D02*
X101960000Y-111760000D01*
X101960000Y-108960000D02*
X101960000Y-111500000D01*
X112650000Y-111450000D02*
X109900000Y-111450000D01*
X112650000Y-111450000D02*
X115350000Y-111450000D01*
X125600000Y-109550000D02*
X125650000Y-109500000D01*
X122850000Y-109550000D02*
X125600000Y-109550000D01*
X120150000Y-109550000D02*
X122850000Y-109550000D01*
D26*
G36*
X119265000Y-76799995D02*
X119264999Y-76800000D01*
X119299653Y-76974211D01*
X119332367Y-77138675D01*
X119454125Y-77320900D01*
X119524210Y-77425790D01*
X119902821Y-77804401D01*
X119902758Y-77876661D01*
X120114990Y-78390303D01*
X120507630Y-78783629D01*
X121020900Y-78996757D01*
X121576661Y-78997242D01*
X122090303Y-78785010D01*
X122390837Y-78485000D01*
X122812486Y-78485000D01*
X122856012Y-78550142D01*
X123289118Y-78839533D01*
X123800000Y-78941154D01*
X124310882Y-78839533D01*
X124743988Y-78550142D01*
X125000000Y-78166991D01*
X125256012Y-78550142D01*
X125689118Y-78839533D01*
X126200000Y-78941154D01*
X126710882Y-78839533D01*
X127143988Y-78550142D01*
X127200878Y-78465000D01*
X127489557Y-78465000D01*
X127807630Y-78783629D01*
X128320900Y-78996757D01*
X128876661Y-78997242D01*
X129315000Y-78816124D01*
X129315000Y-80371844D01*
X128807698Y-80190856D01*
X128252632Y-80218638D01*
X127868857Y-80377603D01*
X127799392Y-80619787D01*
X128600000Y-81420395D01*
X128614143Y-81406253D01*
X128793748Y-81585858D01*
X128779605Y-81600000D01*
X128793748Y-81614143D01*
X128614143Y-81793748D01*
X128600000Y-81779605D01*
X127799392Y-82580213D01*
X127868857Y-82822397D01*
X128392302Y-83009144D01*
X128947368Y-82981362D01*
X129315000Y-82829084D01*
X129315000Y-116932533D01*
X129126383Y-117880775D01*
X128627463Y-118627463D01*
X127880777Y-119126383D01*
X126932533Y-119315000D01*
X119127000Y-119315000D01*
X119127000Y-113635155D01*
X119135167Y-113635162D01*
X119478943Y-113493117D01*
X119742192Y-113230327D01*
X119884838Y-112886799D01*
X119885162Y-112514833D01*
X119846986Y-112422440D01*
X120930000Y-112422440D01*
X121165317Y-112378162D01*
X121381441Y-112239090D01*
X121501233Y-112063768D01*
X121605910Y-112226441D01*
X121818110Y-112371431D01*
X122070000Y-112422440D01*
X123630000Y-112422440D01*
X123865317Y-112378162D01*
X123932393Y-112335000D01*
X124675331Y-112335000D01*
X124685910Y-112351441D01*
X124898110Y-112496431D01*
X125150000Y-112547440D01*
X126150000Y-112547440D01*
X126385317Y-112503162D01*
X126488646Y-112436671D01*
X126490302Y-112438327D01*
X126723691Y-112535000D01*
X127064250Y-112535000D01*
X127223000Y-112376250D01*
X127223000Y-111627000D01*
X127477000Y-111627000D01*
X127477000Y-112376250D01*
X127635750Y-112535000D01*
X127976309Y-112535000D01*
X128209698Y-112438327D01*
X128388327Y-112259699D01*
X128485000Y-112026310D01*
X128485000Y-111785750D01*
X128326250Y-111627000D01*
X127477000Y-111627000D01*
X127223000Y-111627000D01*
X127203000Y-111627000D01*
X127203000Y-111373000D01*
X127223000Y-111373000D01*
X127223000Y-110623750D01*
X127099250Y-110500000D01*
X127223000Y-110376250D01*
X127223000Y-109627000D01*
X127477000Y-109627000D01*
X127477000Y-110376250D01*
X127600750Y-110500000D01*
X127477000Y-110623750D01*
X127477000Y-111373000D01*
X128326250Y-111373000D01*
X128485000Y-111214250D01*
X128485000Y-110973690D01*
X128388327Y-110740301D01*
X128209698Y-110561673D01*
X128060806Y-110500000D01*
X128209698Y-110438327D01*
X128388327Y-110259699D01*
X128485000Y-110026310D01*
X128485000Y-109785750D01*
X128326250Y-109627000D01*
X127477000Y-109627000D01*
X127223000Y-109627000D01*
X127203000Y-109627000D01*
X127203000Y-109373000D01*
X127223000Y-109373000D01*
X127223000Y-108623750D01*
X127477000Y-108623750D01*
X127477000Y-109373000D01*
X128326250Y-109373000D01*
X128485000Y-109214250D01*
X128485000Y-108973690D01*
X128388327Y-108740301D01*
X128209698Y-108561673D01*
X127976309Y-108465000D01*
X127635750Y-108465000D01*
X127477000Y-108623750D01*
X127223000Y-108623750D01*
X127064250Y-108465000D01*
X126723691Y-108465000D01*
X126490302Y-108561673D01*
X126488932Y-108563043D01*
X126401890Y-108503569D01*
X126150000Y-108452560D01*
X125150000Y-108452560D01*
X124914683Y-108496838D01*
X124698559Y-108635910D01*
X124678683Y-108665000D01*
X123935209Y-108665000D01*
X123881890Y-108628569D01*
X123630000Y-108577560D01*
X122070000Y-108577560D01*
X121834683Y-108621838D01*
X121767607Y-108665000D01*
X121235209Y-108665000D01*
X121181890Y-108628569D01*
X121035000Y-108598823D01*
X121035000Y-108237419D01*
X121092192Y-108180327D01*
X121234838Y-107836799D01*
X121235162Y-107464833D01*
X121093117Y-107121057D01*
X120830327Y-106857808D01*
X120486799Y-106715162D01*
X120114833Y-106714838D01*
X119771057Y-106856883D01*
X119507808Y-107119673D01*
X119421058Y-107328588D01*
X119332367Y-107461325D01*
X119332367Y-107461326D01*
X119264999Y-107800000D01*
X119265000Y-107800005D01*
X119265000Y-108597317D01*
X119134683Y-108621838D01*
X119127000Y-108626782D01*
X119127000Y-96385167D01*
X119164838Y-96385167D01*
X119306883Y-96728943D01*
X119569673Y-96992192D01*
X119913201Y-97134838D01*
X120285167Y-97135162D01*
X120628943Y-96993117D01*
X120892192Y-96730327D01*
X120942566Y-96609014D01*
X120966580Y-96585000D01*
X123343178Y-96585000D01*
X123463201Y-96634838D01*
X123835167Y-96635162D01*
X124178943Y-96493117D01*
X124442192Y-96230327D01*
X124584838Y-95886799D01*
X124585162Y-95514833D01*
X124443117Y-95171057D01*
X124180327Y-94907808D01*
X123836799Y-94765162D01*
X123464833Y-94764838D01*
X123343431Y-94815000D01*
X120600005Y-94815000D01*
X120600000Y-94814999D01*
X120317516Y-94871190D01*
X120261325Y-94882367D01*
X119974210Y-95074210D01*
X119974208Y-95074213D01*
X119691165Y-95357256D01*
X119571057Y-95406883D01*
X119307808Y-95669673D01*
X119165162Y-96013201D01*
X119164838Y-96385167D01*
X119127000Y-96385167D01*
X119127000Y-93552606D01*
X119585289Y-93094317D01*
X119515162Y-93263201D01*
X119514838Y-93635167D01*
X119656883Y-93978943D01*
X119919673Y-94242192D01*
X120263201Y-94384838D01*
X120635167Y-94385162D01*
X120978943Y-94243117D01*
X121242192Y-93980327D01*
X121255848Y-93947440D01*
X121350000Y-93947440D01*
X121585317Y-93903162D01*
X121699978Y-93829380D01*
X121798110Y-93896431D01*
X122050000Y-93947440D01*
X123050000Y-93947440D01*
X123285317Y-93903162D01*
X123501441Y-93764090D01*
X123646431Y-93551890D01*
X123678753Y-93392278D01*
X123784838Y-93136799D01*
X123785162Y-92764833D01*
X123697440Y-92552529D01*
X123697440Y-92500000D01*
X123653162Y-92264683D01*
X123514090Y-92048559D01*
X123301890Y-91903569D01*
X123050000Y-91852560D01*
X122050000Y-91852560D01*
X121814683Y-91896838D01*
X121700022Y-91970620D01*
X121601890Y-91903569D01*
X121350000Y-91852560D01*
X120827046Y-91852560D01*
X121052606Y-91627000D01*
X126500000Y-91627000D01*
X126549410Y-91616994D01*
X126591035Y-91588553D01*
X126618315Y-91546159D01*
X126627000Y-91500000D01*
X126627000Y-89500000D01*
X126616994Y-89450590D01*
X126588553Y-89408965D01*
X126546159Y-89381685D01*
X126500000Y-89373000D01*
X118378580Y-89373000D01*
X119558834Y-88192745D01*
X119678943Y-88143117D01*
X119942192Y-87880327D01*
X120084838Y-87536799D01*
X120085162Y-87164833D01*
X119943117Y-86821057D01*
X119680327Y-86557808D01*
X119336799Y-86415162D01*
X118964833Y-86414838D01*
X118621057Y-86556883D01*
X118357808Y-86819673D01*
X118307434Y-86940987D01*
X117627000Y-87621420D01*
X117627000Y-83678580D01*
X122007255Y-88058834D01*
X122056883Y-88178943D01*
X122319673Y-88442192D01*
X122663201Y-88584838D01*
X123035167Y-88585162D01*
X123378943Y-88443117D01*
X123642192Y-88180327D01*
X123784838Y-87836799D01*
X123784883Y-87785162D01*
X123785167Y-87785162D01*
X124128943Y-87643117D01*
X124392192Y-87380327D01*
X124534838Y-87036799D01*
X124535162Y-86664833D01*
X124420767Y-86387976D01*
X124555229Y-86332418D01*
X124931098Y-85957204D01*
X124999918Y-85791468D01*
X125067582Y-85955229D01*
X125442796Y-86331098D01*
X125933287Y-86534768D01*
X126464383Y-86535231D01*
X126955229Y-86332418D01*
X127331098Y-85957204D01*
X127534768Y-85466713D01*
X127535231Y-84935617D01*
X127332418Y-84444771D01*
X126957204Y-84068902D01*
X126466713Y-83865232D01*
X125935617Y-83864769D01*
X125444771Y-84067582D01*
X125068902Y-84442796D01*
X125000082Y-84608532D01*
X124932418Y-84444771D01*
X124557204Y-84068902D01*
X124066713Y-83865232D01*
X123535617Y-83864769D01*
X123044771Y-84067582D01*
X122668902Y-84442796D01*
X122603025Y-84601445D01*
X120965477Y-82963897D01*
X121092302Y-83009144D01*
X121647368Y-82981362D01*
X122031143Y-82822397D01*
X122100608Y-82580213D01*
X121300000Y-81779605D01*
X121285858Y-81793748D01*
X121106253Y-81614143D01*
X121120395Y-81600000D01*
X121479605Y-81600000D01*
X122280213Y-82400608D01*
X122522397Y-82331143D01*
X122709144Y-81807698D01*
X122688353Y-81392302D01*
X127190856Y-81392302D01*
X127218638Y-81947368D01*
X127377603Y-82331143D01*
X127619787Y-82400608D01*
X128420395Y-81600000D01*
X127619787Y-80799392D01*
X127377603Y-80868857D01*
X127190856Y-81392302D01*
X122688353Y-81392302D01*
X122681362Y-81252632D01*
X122522397Y-80868857D01*
X122280213Y-80799392D01*
X121479605Y-81600000D01*
X121120395Y-81600000D01*
X120526550Y-81006155D01*
X120517633Y-80961325D01*
X120325790Y-80674210D01*
X120325787Y-80674208D01*
X120271367Y-80619787D01*
X120499392Y-80619787D01*
X121300000Y-81420395D01*
X122100608Y-80619787D01*
X122031143Y-80377603D01*
X121507698Y-80190856D01*
X120952632Y-80218638D01*
X120568857Y-80377603D01*
X120499392Y-80619787D01*
X120271367Y-80619787D01*
X118635000Y-78983420D01*
X118635000Y-72760579D01*
X118693276Y-72784777D01*
X119204481Y-72785223D01*
X119265000Y-72760217D01*
X119265000Y-76799995D01*
X119265000Y-76799995D01*
G37*
X119265000Y-76799995D02*
X119264999Y-76800000D01*
X119299653Y-76974211D01*
X119332367Y-77138675D01*
X119454125Y-77320900D01*
X119524210Y-77425790D01*
X119902821Y-77804401D01*
X119902758Y-77876661D01*
X120114990Y-78390303D01*
X120507630Y-78783629D01*
X121020900Y-78996757D01*
X121576661Y-78997242D01*
X122090303Y-78785010D01*
X122390837Y-78485000D01*
X122812486Y-78485000D01*
X122856012Y-78550142D01*
X123289118Y-78839533D01*
X123800000Y-78941154D01*
X124310882Y-78839533D01*
X124743988Y-78550142D01*
X125000000Y-78166991D01*
X125256012Y-78550142D01*
X125689118Y-78839533D01*
X126200000Y-78941154D01*
X126710882Y-78839533D01*
X127143988Y-78550142D01*
X127200878Y-78465000D01*
X127489557Y-78465000D01*
X127807630Y-78783629D01*
X128320900Y-78996757D01*
X128876661Y-78997242D01*
X129315000Y-78816124D01*
X129315000Y-80371844D01*
X128807698Y-80190856D01*
X128252632Y-80218638D01*
X127868857Y-80377603D01*
X127799392Y-80619787D01*
X128600000Y-81420395D01*
X128614143Y-81406253D01*
X128793748Y-81585858D01*
X128779605Y-81600000D01*
X128793748Y-81614143D01*
X128614143Y-81793748D01*
X128600000Y-81779605D01*
X127799392Y-82580213D01*
X127868857Y-82822397D01*
X128392302Y-83009144D01*
X128947368Y-82981362D01*
X129315000Y-82829084D01*
X129315000Y-116932533D01*
X129126383Y-117880775D01*
X128627463Y-118627463D01*
X127880777Y-119126383D01*
X126932533Y-119315000D01*
X119127000Y-119315000D01*
X119127000Y-113635155D01*
X119135167Y-113635162D01*
X119478943Y-113493117D01*
X119742192Y-113230327D01*
X119884838Y-112886799D01*
X119885162Y-112514833D01*
X119846986Y-112422440D01*
X120930000Y-112422440D01*
X121165317Y-112378162D01*
X121381441Y-112239090D01*
X121501233Y-112063768D01*
X121605910Y-112226441D01*
X121818110Y-112371431D01*
X122070000Y-112422440D01*
X123630000Y-112422440D01*
X123865317Y-112378162D01*
X123932393Y-112335000D01*
X124675331Y-112335000D01*
X124685910Y-112351441D01*
X124898110Y-112496431D01*
X125150000Y-112547440D01*
X126150000Y-112547440D01*
X126385317Y-112503162D01*
X126488646Y-112436671D01*
X126490302Y-112438327D01*
X126723691Y-112535000D01*
X127064250Y-112535000D01*
X127223000Y-112376250D01*
X127223000Y-111627000D01*
X127477000Y-111627000D01*
X127477000Y-112376250D01*
X127635750Y-112535000D01*
X127976309Y-112535000D01*
X128209698Y-112438327D01*
X128388327Y-112259699D01*
X128485000Y-112026310D01*
X128485000Y-111785750D01*
X128326250Y-111627000D01*
X127477000Y-111627000D01*
X127223000Y-111627000D01*
X127203000Y-111627000D01*
X127203000Y-111373000D01*
X127223000Y-111373000D01*
X127223000Y-110623750D01*
X127099250Y-110500000D01*
X127223000Y-110376250D01*
X127223000Y-109627000D01*
X127477000Y-109627000D01*
X127477000Y-110376250D01*
X127600750Y-110500000D01*
X127477000Y-110623750D01*
X127477000Y-111373000D01*
X128326250Y-111373000D01*
X128485000Y-111214250D01*
X128485000Y-110973690D01*
X128388327Y-110740301D01*
X128209698Y-110561673D01*
X128060806Y-110500000D01*
X128209698Y-110438327D01*
X128388327Y-110259699D01*
X128485000Y-110026310D01*
X128485000Y-109785750D01*
X128326250Y-109627000D01*
X127477000Y-109627000D01*
X127223000Y-109627000D01*
X127203000Y-109627000D01*
X127203000Y-109373000D01*
X127223000Y-109373000D01*
X127223000Y-108623750D01*
X127477000Y-108623750D01*
X127477000Y-109373000D01*
X128326250Y-109373000D01*
X128485000Y-109214250D01*
X128485000Y-108973690D01*
X128388327Y-108740301D01*
X128209698Y-108561673D01*
X127976309Y-108465000D01*
X127635750Y-108465000D01*
X127477000Y-108623750D01*
X127223000Y-108623750D01*
X127064250Y-108465000D01*
X126723691Y-108465000D01*
X126490302Y-108561673D01*
X126488932Y-108563043D01*
X126401890Y-108503569D01*
X126150000Y-108452560D01*
X125150000Y-108452560D01*
X124914683Y-108496838D01*
X124698559Y-108635910D01*
X124678683Y-108665000D01*
X123935209Y-108665000D01*
X123881890Y-108628569D01*
X123630000Y-108577560D01*
X122070000Y-108577560D01*
X121834683Y-108621838D01*
X121767607Y-108665000D01*
X121235209Y-108665000D01*
X121181890Y-108628569D01*
X121035000Y-108598823D01*
X121035000Y-108237419D01*
X121092192Y-108180327D01*
X121234838Y-107836799D01*
X121235162Y-107464833D01*
X121093117Y-107121057D01*
X120830327Y-106857808D01*
X120486799Y-106715162D01*
X120114833Y-106714838D01*
X119771057Y-106856883D01*
X119507808Y-107119673D01*
X119421058Y-107328588D01*
X119332367Y-107461325D01*
X119332367Y-107461326D01*
X119264999Y-107800000D01*
X119265000Y-107800005D01*
X119265000Y-108597317D01*
X119134683Y-108621838D01*
X119127000Y-108626782D01*
X119127000Y-96385167D01*
X119164838Y-96385167D01*
X119306883Y-96728943D01*
X119569673Y-96992192D01*
X119913201Y-97134838D01*
X120285167Y-97135162D01*
X120628943Y-96993117D01*
X120892192Y-96730327D01*
X120942566Y-96609014D01*
X120966580Y-96585000D01*
X123343178Y-96585000D01*
X123463201Y-96634838D01*
X123835167Y-96635162D01*
X124178943Y-96493117D01*
X124442192Y-96230327D01*
X124584838Y-95886799D01*
X124585162Y-95514833D01*
X124443117Y-95171057D01*
X124180327Y-94907808D01*
X123836799Y-94765162D01*
X123464833Y-94764838D01*
X123343431Y-94815000D01*
X120600005Y-94815000D01*
X120600000Y-94814999D01*
X120317516Y-94871190D01*
X120261325Y-94882367D01*
X119974210Y-95074210D01*
X119974208Y-95074213D01*
X119691165Y-95357256D01*
X119571057Y-95406883D01*
X119307808Y-95669673D01*
X119165162Y-96013201D01*
X119164838Y-96385167D01*
X119127000Y-96385167D01*
X119127000Y-93552606D01*
X119585289Y-93094317D01*
X119515162Y-93263201D01*
X119514838Y-93635167D01*
X119656883Y-93978943D01*
X119919673Y-94242192D01*
X120263201Y-94384838D01*
X120635167Y-94385162D01*
X120978943Y-94243117D01*
X121242192Y-93980327D01*
X121255848Y-93947440D01*
X121350000Y-93947440D01*
X121585317Y-93903162D01*
X121699978Y-93829380D01*
X121798110Y-93896431D01*
X122050000Y-93947440D01*
X123050000Y-93947440D01*
X123285317Y-93903162D01*
X123501441Y-93764090D01*
X123646431Y-93551890D01*
X123678753Y-93392278D01*
X123784838Y-93136799D01*
X123785162Y-92764833D01*
X123697440Y-92552529D01*
X123697440Y-92500000D01*
X123653162Y-92264683D01*
X123514090Y-92048559D01*
X123301890Y-91903569D01*
X123050000Y-91852560D01*
X122050000Y-91852560D01*
X121814683Y-91896838D01*
X121700022Y-91970620D01*
X121601890Y-91903569D01*
X121350000Y-91852560D01*
X120827046Y-91852560D01*
X121052606Y-91627000D01*
X126500000Y-91627000D01*
X126549410Y-91616994D01*
X126591035Y-91588553D01*
X126618315Y-91546159D01*
X126627000Y-91500000D01*
X126627000Y-89500000D01*
X126616994Y-89450590D01*
X126588553Y-89408965D01*
X126546159Y-89381685D01*
X126500000Y-89373000D01*
X118378580Y-89373000D01*
X119558834Y-88192745D01*
X119678943Y-88143117D01*
X119942192Y-87880327D01*
X120084838Y-87536799D01*
X120085162Y-87164833D01*
X119943117Y-86821057D01*
X119680327Y-86557808D01*
X119336799Y-86415162D01*
X118964833Y-86414838D01*
X118621057Y-86556883D01*
X118357808Y-86819673D01*
X118307434Y-86940987D01*
X117627000Y-87621420D01*
X117627000Y-83678580D01*
X122007255Y-88058834D01*
X122056883Y-88178943D01*
X122319673Y-88442192D01*
X122663201Y-88584838D01*
X123035167Y-88585162D01*
X123378943Y-88443117D01*
X123642192Y-88180327D01*
X123784838Y-87836799D01*
X123784883Y-87785162D01*
X123785167Y-87785162D01*
X124128943Y-87643117D01*
X124392192Y-87380327D01*
X124534838Y-87036799D01*
X124535162Y-86664833D01*
X124420767Y-86387976D01*
X124555229Y-86332418D01*
X124931098Y-85957204D01*
X124999918Y-85791468D01*
X125067582Y-85955229D01*
X125442796Y-86331098D01*
X125933287Y-86534768D01*
X126464383Y-86535231D01*
X126955229Y-86332418D01*
X127331098Y-85957204D01*
X127534768Y-85466713D01*
X127535231Y-84935617D01*
X127332418Y-84444771D01*
X126957204Y-84068902D01*
X126466713Y-83865232D01*
X125935617Y-83864769D01*
X125444771Y-84067582D01*
X125068902Y-84442796D01*
X125000082Y-84608532D01*
X124932418Y-84444771D01*
X124557204Y-84068902D01*
X124066713Y-83865232D01*
X123535617Y-83864769D01*
X123044771Y-84067582D01*
X122668902Y-84442796D01*
X122603025Y-84601445D01*
X120965477Y-82963897D01*
X121092302Y-83009144D01*
X121647368Y-82981362D01*
X122031143Y-82822397D01*
X122100608Y-82580213D01*
X121300000Y-81779605D01*
X121285858Y-81793748D01*
X121106253Y-81614143D01*
X121120395Y-81600000D01*
X121479605Y-81600000D01*
X122280213Y-82400608D01*
X122522397Y-82331143D01*
X122709144Y-81807698D01*
X122688353Y-81392302D01*
X127190856Y-81392302D01*
X127218638Y-81947368D01*
X127377603Y-82331143D01*
X127619787Y-82400608D01*
X128420395Y-81600000D01*
X127619787Y-80799392D01*
X127377603Y-80868857D01*
X127190856Y-81392302D01*
X122688353Y-81392302D01*
X122681362Y-81252632D01*
X122522397Y-80868857D01*
X122280213Y-80799392D01*
X121479605Y-81600000D01*
X121120395Y-81600000D01*
X120526550Y-81006155D01*
X120517633Y-80961325D01*
X120325790Y-80674210D01*
X120325787Y-80674208D01*
X120271367Y-80619787D01*
X120499392Y-80619787D01*
X121300000Y-81420395D01*
X122100608Y-80619787D01*
X122031143Y-80377603D01*
X121507698Y-80190856D01*
X120952632Y-80218638D01*
X120568857Y-80377603D01*
X120499392Y-80619787D01*
X120271367Y-80619787D01*
X118635000Y-78983420D01*
X118635000Y-72760579D01*
X118693276Y-72784777D01*
X119204481Y-72785223D01*
X119265000Y-72760217D01*
X119265000Y-76799995D01*
G36*
X121818110Y-110471431D02*
X121955120Y-110499176D01*
X121834683Y-110521838D01*
X121671257Y-110627000D01*
X121593750Y-110627000D01*
X121454035Y-110766715D01*
X121394090Y-110673559D01*
X121181890Y-110528569D01*
X121044880Y-110500824D01*
X121165317Y-110478162D01*
X121232393Y-110435000D01*
X121764791Y-110435000D01*
X121818110Y-110471431D01*
X121818110Y-110471431D01*
G37*
X121818110Y-110471431D02*
X121955120Y-110499176D01*
X121834683Y-110521838D01*
X121671257Y-110627000D01*
X121593750Y-110627000D01*
X121454035Y-110766715D01*
X121394090Y-110673559D01*
X121181890Y-110528569D01*
X121044880Y-110500824D01*
X121165317Y-110478162D01*
X121232393Y-110435000D01*
X121764791Y-110435000D01*
X121818110Y-110471431D01*
G36*
X127880777Y-55873617D02*
X128627463Y-56372537D01*
X129126383Y-57119225D01*
X129315000Y-58067467D01*
X129315000Y-60260183D01*
X129206724Y-60215223D01*
X128695519Y-60214777D01*
X128223057Y-60409995D01*
X127861265Y-60771155D01*
X127665223Y-61243276D01*
X127664777Y-61754481D01*
X127859995Y-62226943D01*
X128221155Y-62588735D01*
X128693276Y-62784777D01*
X129204481Y-62785223D01*
X129315000Y-62739557D01*
X129315000Y-64344796D01*
X128950000Y-64272193D01*
X128477386Y-64366202D01*
X128076723Y-64633916D01*
X127809009Y-65034579D01*
X127715000Y-65507193D01*
X127715000Y-65615000D01*
X127685000Y-65615000D01*
X127685000Y-65507193D01*
X127590991Y-65034579D01*
X127323277Y-64633916D01*
X126922614Y-64366202D01*
X126450000Y-64272193D01*
X125977386Y-64366202D01*
X125576723Y-64633916D01*
X125309009Y-65034579D01*
X125215000Y-65507193D01*
X125215000Y-66196576D01*
X125040005Y-65773057D01*
X124678845Y-65411265D01*
X124206724Y-65215223D01*
X123695519Y-65214777D01*
X123223057Y-65409995D01*
X122861265Y-65771155D01*
X122685000Y-66195648D01*
X122685000Y-65507193D01*
X122590991Y-65034579D01*
X122323277Y-64633916D01*
X121922614Y-64366202D01*
X121450000Y-64272193D01*
X120977386Y-64366202D01*
X120576723Y-64633916D01*
X120309009Y-65034579D01*
X120215000Y-65507193D01*
X120215000Y-65615000D01*
X120185000Y-65615000D01*
X120185000Y-65507193D01*
X120090991Y-65034579D01*
X119823277Y-64633916D01*
X119422614Y-64366202D01*
X118950000Y-64272193D01*
X118477386Y-64366202D01*
X118076723Y-64633916D01*
X117809009Y-65034579D01*
X117715000Y-65507193D01*
X117715000Y-67492807D01*
X117809009Y-67965421D01*
X118065000Y-68348539D01*
X118065000Y-69149995D01*
X118064999Y-69150000D01*
X118117712Y-69415000D01*
X118132367Y-69488675D01*
X118161561Y-69532367D01*
X118324210Y-69775790D01*
X118763256Y-70214836D01*
X118695519Y-70214777D01*
X118223057Y-70409995D01*
X117861265Y-70771155D01*
X117665223Y-71243276D01*
X117665162Y-71313583D01*
X117627000Y-71275421D01*
X117627000Y-61754481D01*
X117664777Y-61754481D01*
X117859995Y-62226943D01*
X118221155Y-62588735D01*
X118693276Y-62784777D01*
X119204481Y-62785223D01*
X119676943Y-62590005D01*
X120038735Y-62228845D01*
X120209495Y-61817609D01*
X121806538Y-61817609D01*
X121810408Y-61855281D01*
X122036920Y-62283474D01*
X122410053Y-62592390D01*
X122873000Y-62735000D01*
X123823000Y-62735000D01*
X123823000Y-61627000D01*
X124077000Y-61627000D01*
X124077000Y-62735000D01*
X125027000Y-62735000D01*
X125489947Y-62592390D01*
X125863080Y-62283474D01*
X126089592Y-61855281D01*
X126093462Y-61817609D01*
X125968731Y-61627000D01*
X124077000Y-61627000D01*
X123823000Y-61627000D01*
X121931269Y-61627000D01*
X121806538Y-61817609D01*
X120209495Y-61817609D01*
X120234777Y-61756724D01*
X120235223Y-61245519D01*
X120209139Y-61182391D01*
X121806538Y-61182391D01*
X121931269Y-61373000D01*
X123823000Y-61373000D01*
X123823000Y-60265000D01*
X124077000Y-60265000D01*
X124077000Y-61373000D01*
X125968731Y-61373000D01*
X126093462Y-61182391D01*
X126089592Y-61144719D01*
X125863080Y-60716526D01*
X125489947Y-60407610D01*
X125027000Y-60265000D01*
X124077000Y-60265000D01*
X123823000Y-60265000D01*
X122873000Y-60265000D01*
X122410053Y-60407610D01*
X122036920Y-60716526D01*
X121810408Y-61144719D01*
X121806538Y-61182391D01*
X120209139Y-61182391D01*
X120040005Y-60773057D01*
X119678845Y-60411265D01*
X119206724Y-60215223D01*
X118695519Y-60214777D01*
X118223057Y-60409995D01*
X117861265Y-60771155D01*
X117665223Y-61243276D01*
X117664777Y-61754481D01*
X117627000Y-61754481D01*
X117627000Y-55685000D01*
X126932533Y-55685000D01*
X127880777Y-55873617D01*
X127880777Y-55873617D01*
G37*
X127880777Y-55873617D02*
X128627463Y-56372537D01*
X129126383Y-57119225D01*
X129315000Y-58067467D01*
X129315000Y-60260183D01*
X129206724Y-60215223D01*
X128695519Y-60214777D01*
X128223057Y-60409995D01*
X127861265Y-60771155D01*
X127665223Y-61243276D01*
X127664777Y-61754481D01*
X127859995Y-62226943D01*
X128221155Y-62588735D01*
X128693276Y-62784777D01*
X129204481Y-62785223D01*
X129315000Y-62739557D01*
X129315000Y-64344796D01*
X128950000Y-64272193D01*
X128477386Y-64366202D01*
X128076723Y-64633916D01*
X127809009Y-65034579D01*
X127715000Y-65507193D01*
X127715000Y-65615000D01*
X127685000Y-65615000D01*
X127685000Y-65507193D01*
X127590991Y-65034579D01*
X127323277Y-64633916D01*
X126922614Y-64366202D01*
X126450000Y-64272193D01*
X125977386Y-64366202D01*
X125576723Y-64633916D01*
X125309009Y-65034579D01*
X125215000Y-65507193D01*
X125215000Y-66196576D01*
X125040005Y-65773057D01*
X124678845Y-65411265D01*
X124206724Y-65215223D01*
X123695519Y-65214777D01*
X123223057Y-65409995D01*
X122861265Y-65771155D01*
X122685000Y-66195648D01*
X122685000Y-65507193D01*
X122590991Y-65034579D01*
X122323277Y-64633916D01*
X121922614Y-64366202D01*
X121450000Y-64272193D01*
X120977386Y-64366202D01*
X120576723Y-64633916D01*
X120309009Y-65034579D01*
X120215000Y-65507193D01*
X120215000Y-65615000D01*
X120185000Y-65615000D01*
X120185000Y-65507193D01*
X120090991Y-65034579D01*
X119823277Y-64633916D01*
X119422614Y-64366202D01*
X118950000Y-64272193D01*
X118477386Y-64366202D01*
X118076723Y-64633916D01*
X117809009Y-65034579D01*
X117715000Y-65507193D01*
X117715000Y-67492807D01*
X117809009Y-67965421D01*
X118065000Y-68348539D01*
X118065000Y-69149995D01*
X118064999Y-69150000D01*
X118117712Y-69415000D01*
X118132367Y-69488675D01*
X118161561Y-69532367D01*
X118324210Y-69775790D01*
X118763256Y-70214836D01*
X118695519Y-70214777D01*
X118223057Y-70409995D01*
X117861265Y-70771155D01*
X117665223Y-71243276D01*
X117665162Y-71313583D01*
X117627000Y-71275421D01*
X117627000Y-61754481D01*
X117664777Y-61754481D01*
X117859995Y-62226943D01*
X118221155Y-62588735D01*
X118693276Y-62784777D01*
X119204481Y-62785223D01*
X119676943Y-62590005D01*
X120038735Y-62228845D01*
X120209495Y-61817609D01*
X121806538Y-61817609D01*
X121810408Y-61855281D01*
X122036920Y-62283474D01*
X122410053Y-62592390D01*
X122873000Y-62735000D01*
X123823000Y-62735000D01*
X123823000Y-61627000D01*
X124077000Y-61627000D01*
X124077000Y-62735000D01*
X125027000Y-62735000D01*
X125489947Y-62592390D01*
X125863080Y-62283474D01*
X126089592Y-61855281D01*
X126093462Y-61817609D01*
X125968731Y-61627000D01*
X124077000Y-61627000D01*
X123823000Y-61627000D01*
X121931269Y-61627000D01*
X121806538Y-61817609D01*
X120209495Y-61817609D01*
X120234777Y-61756724D01*
X120235223Y-61245519D01*
X120209139Y-61182391D01*
X121806538Y-61182391D01*
X121931269Y-61373000D01*
X123823000Y-61373000D01*
X123823000Y-60265000D01*
X124077000Y-60265000D01*
X124077000Y-61373000D01*
X125968731Y-61373000D01*
X126093462Y-61182391D01*
X126089592Y-61144719D01*
X125863080Y-60716526D01*
X125489947Y-60407610D01*
X125027000Y-60265000D01*
X124077000Y-60265000D01*
X123823000Y-60265000D01*
X122873000Y-60265000D01*
X122410053Y-60407610D01*
X122036920Y-60716526D01*
X121810408Y-61144719D01*
X121806538Y-61182391D01*
X120209139Y-61182391D01*
X120040005Y-60773057D01*
X119678845Y-60411265D01*
X119206724Y-60215223D01*
X118695519Y-60214777D01*
X118223057Y-60409995D01*
X117861265Y-60771155D01*
X117665223Y-61243276D01*
X117664777Y-61754481D01*
X117627000Y-61754481D01*
X117627000Y-55685000D01*
X126932533Y-55685000D01*
X127880777Y-55873617D01*
G36*
X114869673Y-84792192D02*
X115213201Y-84934838D01*
X115585167Y-84935162D01*
X115715000Y-84881516D01*
X115715000Y-90506088D01*
X115471057Y-90606883D01*
X115207808Y-90869673D01*
X115188986Y-90915000D01*
X108866580Y-90915000D01*
X108842744Y-90891165D01*
X108793117Y-90771057D01*
X108530327Y-90507808D01*
X108186799Y-90365162D01*
X107814833Y-90364838D01*
X107471057Y-90506883D01*
X107207808Y-90769673D01*
X107065162Y-91113201D01*
X107064838Y-91485167D01*
X107206883Y-91828943D01*
X107469673Y-92092192D01*
X107590986Y-92142566D01*
X107874208Y-92425787D01*
X107874210Y-92425790D01*
X108161325Y-92617633D01*
X108217516Y-92628810D01*
X108500000Y-92685001D01*
X108500005Y-92685000D01*
X115715000Y-92685000D01*
X115715000Y-93643178D01*
X115665162Y-93763201D01*
X115664838Y-94135167D01*
X115715000Y-94256569D01*
X115715000Y-98693178D01*
X115665162Y-98813201D01*
X115664838Y-99185167D01*
X115715000Y-99306569D01*
X115715000Y-101772766D01*
X115615162Y-102013201D01*
X115614838Y-102385167D01*
X115756883Y-102728943D01*
X116019673Y-102992192D01*
X116363201Y-103134838D01*
X116735167Y-103135162D01*
X117078943Y-102993117D01*
X117342192Y-102730327D01*
X117484838Y-102386799D01*
X117485162Y-102014833D01*
X117485000Y-102014441D01*
X117485000Y-99306822D01*
X117534838Y-99186799D01*
X117535162Y-98814833D01*
X117485000Y-98693431D01*
X117485000Y-94256822D01*
X117534838Y-94136799D01*
X117535162Y-93764833D01*
X117485000Y-93643431D01*
X117485000Y-92116580D01*
X117873000Y-91728579D01*
X117873000Y-110873000D01*
X117174580Y-110873000D01*
X117125790Y-110824210D01*
X117014726Y-110750000D01*
X116838675Y-110632367D01*
X116782484Y-110621190D01*
X116500000Y-110564999D01*
X116499995Y-110565000D01*
X116435209Y-110565000D01*
X116381890Y-110528569D01*
X116244880Y-110500824D01*
X116365317Y-110478162D01*
X116581441Y-110339090D01*
X116726431Y-110126890D01*
X116777440Y-109875000D01*
X116777440Y-109225000D01*
X116733162Y-108989683D01*
X116594090Y-108773559D01*
X116381890Y-108628569D01*
X116235000Y-108598823D01*
X116235000Y-108250005D01*
X116235001Y-108250000D01*
X116234957Y-108249781D01*
X116235162Y-108014833D01*
X116093117Y-107671057D01*
X115830327Y-107407808D01*
X115486799Y-107265162D01*
X115114833Y-107264838D01*
X114771057Y-107406883D01*
X114507808Y-107669673D01*
X114365162Y-108013201D01*
X114364838Y-108385167D01*
X114453398Y-108599500D01*
X114334683Y-108621838D01*
X114118559Y-108760910D01*
X113998767Y-108936232D01*
X113894090Y-108773559D01*
X113681890Y-108628569D01*
X113430000Y-108577560D01*
X111870000Y-108577560D01*
X111634683Y-108621838D01*
X111567607Y-108665000D01*
X110824669Y-108665000D01*
X110814090Y-108648559D01*
X110601890Y-108503569D01*
X110350000Y-108452560D01*
X109350000Y-108452560D01*
X109114683Y-108496838D01*
X109011354Y-108563329D01*
X109009698Y-108561673D01*
X108776309Y-108465000D01*
X108435750Y-108465000D01*
X108277000Y-108623750D01*
X108277000Y-109373000D01*
X108297000Y-109373000D01*
X108297000Y-109627000D01*
X108277000Y-109627000D01*
X108277000Y-110376250D01*
X108400750Y-110500000D01*
X108277000Y-110623750D01*
X108277000Y-110873000D01*
X108023000Y-110873000D01*
X108023000Y-110623750D01*
X107899250Y-110500000D01*
X108023000Y-110376250D01*
X108023000Y-109627000D01*
X107173750Y-109627000D01*
X107015000Y-109785750D01*
X107015000Y-110026310D01*
X107111673Y-110259699D01*
X107290302Y-110438327D01*
X107439194Y-110500000D01*
X107290302Y-110561673D01*
X107111673Y-110740301D01*
X107056707Y-110873000D01*
X105997440Y-110873000D01*
X105997440Y-110750000D01*
X105953162Y-110514683D01*
X105814090Y-110298559D01*
X105601890Y-110153569D01*
X105534459Y-110139914D01*
X105579147Y-110110054D01*
X105901054Y-109628285D01*
X106014093Y-109060000D01*
X105996925Y-108973690D01*
X107015000Y-108973690D01*
X107015000Y-109214250D01*
X107173750Y-109373000D01*
X108023000Y-109373000D01*
X108023000Y-108623750D01*
X107864250Y-108465000D01*
X107523691Y-108465000D01*
X107290302Y-108561673D01*
X107111673Y-108740301D01*
X107015000Y-108973690D01*
X105996925Y-108973690D01*
X105901054Y-108491715D01*
X105579147Y-108009946D01*
X105249974Y-107790000D01*
X105579147Y-107570054D01*
X105901054Y-107088285D01*
X106014093Y-106520000D01*
X105901054Y-105951715D01*
X105579147Y-105469946D01*
X105249974Y-105250000D01*
X105579147Y-105030054D01*
X105901054Y-104548285D01*
X106014093Y-103980000D01*
X105901054Y-103411715D01*
X105799872Y-103260286D01*
X106955079Y-102105079D01*
X107125245Y-101850406D01*
X107185000Y-101550000D01*
X107185000Y-95123252D01*
X107378943Y-95043117D01*
X107642192Y-94780327D01*
X107784838Y-94436799D01*
X107785162Y-94064833D01*
X107643117Y-93721057D01*
X107380327Y-93457808D01*
X107036799Y-93315162D01*
X106664833Y-93314838D01*
X106321057Y-93456883D01*
X106057808Y-93719673D01*
X106012203Y-93829501D01*
X106014093Y-93820000D01*
X105901054Y-93251715D01*
X105579147Y-92769946D01*
X105249974Y-92550000D01*
X105579147Y-92330054D01*
X105901054Y-91848285D01*
X106014093Y-91280000D01*
X105901054Y-90711715D01*
X105579147Y-90229946D01*
X105249974Y-90010000D01*
X105579147Y-89790054D01*
X105756250Y-89525000D01*
X106160000Y-89525000D01*
X106460407Y-89465245D01*
X106715079Y-89295079D01*
X111225158Y-84785000D01*
X114862494Y-84785000D01*
X114869673Y-84792192D01*
X114869673Y-84792192D01*
G37*
X114869673Y-84792192D02*
X115213201Y-84934838D01*
X115585167Y-84935162D01*
X115715000Y-84881516D01*
X115715000Y-90506088D01*
X115471057Y-90606883D01*
X115207808Y-90869673D01*
X115188986Y-90915000D01*
X108866580Y-90915000D01*
X108842744Y-90891165D01*
X108793117Y-90771057D01*
X108530327Y-90507808D01*
X108186799Y-90365162D01*
X107814833Y-90364838D01*
X107471057Y-90506883D01*
X107207808Y-90769673D01*
X107065162Y-91113201D01*
X107064838Y-91485167D01*
X107206883Y-91828943D01*
X107469673Y-92092192D01*
X107590986Y-92142566D01*
X107874208Y-92425787D01*
X107874210Y-92425790D01*
X108161325Y-92617633D01*
X108217516Y-92628810D01*
X108500000Y-92685001D01*
X108500005Y-92685000D01*
X115715000Y-92685000D01*
X115715000Y-93643178D01*
X115665162Y-93763201D01*
X115664838Y-94135167D01*
X115715000Y-94256569D01*
X115715000Y-98693178D01*
X115665162Y-98813201D01*
X115664838Y-99185167D01*
X115715000Y-99306569D01*
X115715000Y-101772766D01*
X115615162Y-102013201D01*
X115614838Y-102385167D01*
X115756883Y-102728943D01*
X116019673Y-102992192D01*
X116363201Y-103134838D01*
X116735167Y-103135162D01*
X117078943Y-102993117D01*
X117342192Y-102730327D01*
X117484838Y-102386799D01*
X117485162Y-102014833D01*
X117485000Y-102014441D01*
X117485000Y-99306822D01*
X117534838Y-99186799D01*
X117535162Y-98814833D01*
X117485000Y-98693431D01*
X117485000Y-94256822D01*
X117534838Y-94136799D01*
X117535162Y-93764833D01*
X117485000Y-93643431D01*
X117485000Y-92116580D01*
X117873000Y-91728579D01*
X117873000Y-110873000D01*
X117174580Y-110873000D01*
X117125790Y-110824210D01*
X117014726Y-110750000D01*
X116838675Y-110632367D01*
X116782484Y-110621190D01*
X116500000Y-110564999D01*
X116499995Y-110565000D01*
X116435209Y-110565000D01*
X116381890Y-110528569D01*
X116244880Y-110500824D01*
X116365317Y-110478162D01*
X116581441Y-110339090D01*
X116726431Y-110126890D01*
X116777440Y-109875000D01*
X116777440Y-109225000D01*
X116733162Y-108989683D01*
X116594090Y-108773559D01*
X116381890Y-108628569D01*
X116235000Y-108598823D01*
X116235000Y-108250005D01*
X116235001Y-108250000D01*
X116234957Y-108249781D01*
X116235162Y-108014833D01*
X116093117Y-107671057D01*
X115830327Y-107407808D01*
X115486799Y-107265162D01*
X115114833Y-107264838D01*
X114771057Y-107406883D01*
X114507808Y-107669673D01*
X114365162Y-108013201D01*
X114364838Y-108385167D01*
X114453398Y-108599500D01*
X114334683Y-108621838D01*
X114118559Y-108760910D01*
X113998767Y-108936232D01*
X113894090Y-108773559D01*
X113681890Y-108628569D01*
X113430000Y-108577560D01*
X111870000Y-108577560D01*
X111634683Y-108621838D01*
X111567607Y-108665000D01*
X110824669Y-108665000D01*
X110814090Y-108648559D01*
X110601890Y-108503569D01*
X110350000Y-108452560D01*
X109350000Y-108452560D01*
X109114683Y-108496838D01*
X109011354Y-108563329D01*
X109009698Y-108561673D01*
X108776309Y-108465000D01*
X108435750Y-108465000D01*
X108277000Y-108623750D01*
X108277000Y-109373000D01*
X108297000Y-109373000D01*
X108297000Y-109627000D01*
X108277000Y-109627000D01*
X108277000Y-110376250D01*
X108400750Y-110500000D01*
X108277000Y-110623750D01*
X108277000Y-110873000D01*
X108023000Y-110873000D01*
X108023000Y-110623750D01*
X107899250Y-110500000D01*
X108023000Y-110376250D01*
X108023000Y-109627000D01*
X107173750Y-109627000D01*
X107015000Y-109785750D01*
X107015000Y-110026310D01*
X107111673Y-110259699D01*
X107290302Y-110438327D01*
X107439194Y-110500000D01*
X107290302Y-110561673D01*
X107111673Y-110740301D01*
X107056707Y-110873000D01*
X105997440Y-110873000D01*
X105997440Y-110750000D01*
X105953162Y-110514683D01*
X105814090Y-110298559D01*
X105601890Y-110153569D01*
X105534459Y-110139914D01*
X105579147Y-110110054D01*
X105901054Y-109628285D01*
X106014093Y-109060000D01*
X105996925Y-108973690D01*
X107015000Y-108973690D01*
X107015000Y-109214250D01*
X107173750Y-109373000D01*
X108023000Y-109373000D01*
X108023000Y-108623750D01*
X107864250Y-108465000D01*
X107523691Y-108465000D01*
X107290302Y-108561673D01*
X107111673Y-108740301D01*
X107015000Y-108973690D01*
X105996925Y-108973690D01*
X105901054Y-108491715D01*
X105579147Y-108009946D01*
X105249974Y-107790000D01*
X105579147Y-107570054D01*
X105901054Y-107088285D01*
X106014093Y-106520000D01*
X105901054Y-105951715D01*
X105579147Y-105469946D01*
X105249974Y-105250000D01*
X105579147Y-105030054D01*
X105901054Y-104548285D01*
X106014093Y-103980000D01*
X105901054Y-103411715D01*
X105799872Y-103260286D01*
X106955079Y-102105079D01*
X107125245Y-101850406D01*
X107185000Y-101550000D01*
X107185000Y-95123252D01*
X107378943Y-95043117D01*
X107642192Y-94780327D01*
X107784838Y-94436799D01*
X107785162Y-94064833D01*
X107643117Y-93721057D01*
X107380327Y-93457808D01*
X107036799Y-93315162D01*
X106664833Y-93314838D01*
X106321057Y-93456883D01*
X106057808Y-93719673D01*
X106012203Y-93829501D01*
X106014093Y-93820000D01*
X105901054Y-93251715D01*
X105579147Y-92769946D01*
X105249974Y-92550000D01*
X105579147Y-92330054D01*
X105901054Y-91848285D01*
X106014093Y-91280000D01*
X105901054Y-90711715D01*
X105579147Y-90229946D01*
X105249974Y-90010000D01*
X105579147Y-89790054D01*
X105756250Y-89525000D01*
X106160000Y-89525000D01*
X106460407Y-89465245D01*
X106715079Y-89295079D01*
X111225158Y-84785000D01*
X114862494Y-84785000D01*
X114869673Y-84792192D01*
G36*
X109098110Y-110496431D02*
X109111197Y-110499081D01*
X109011354Y-110563329D01*
X109009698Y-110561673D01*
X108860806Y-110500000D01*
X109009698Y-110438327D01*
X109011068Y-110436957D01*
X109098110Y-110496431D01*
X109098110Y-110496431D01*
G37*
X109098110Y-110496431D02*
X109111197Y-110499081D01*
X109011354Y-110563329D01*
X109009698Y-110561673D01*
X108860806Y-110500000D01*
X109009698Y-110438327D01*
X109011068Y-110436957D01*
X109098110Y-110496431D01*
G36*
X104627000Y-101313000D02*
X104647000Y-101313000D01*
X104647000Y-101567000D01*
X104627000Y-101567000D01*
X104627000Y-101587000D01*
X104373000Y-101587000D01*
X104373000Y-101567000D01*
X104353000Y-101567000D01*
X104353000Y-101313000D01*
X104373000Y-101313000D01*
X104373000Y-101293000D01*
X104627000Y-101293000D01*
X104627000Y-101313000D01*
X104627000Y-101313000D01*
G37*
X104627000Y-101313000D02*
X104647000Y-101313000D01*
X104647000Y-101567000D01*
X104627000Y-101567000D01*
X104627000Y-101587000D01*
X104373000Y-101587000D01*
X104373000Y-101567000D01*
X104353000Y-101567000D01*
X104353000Y-101313000D01*
X104373000Y-101313000D01*
X104373000Y-101293000D01*
X104627000Y-101293000D01*
X104627000Y-101313000D01*
M02*
