G04 #@! TF.FileFunction,Legend,Top*
%FSLAX46Y46*%
G04 Gerber Fmt 4.6, Leading zero omitted, Abs format (unit mm)*
G04 Created by KiCad (PCBNEW 4.0.7) date 05/16/18 21:08:28*
%MOMM*%
%LPD*%
G01*
G04 APERTURE LIST*
%ADD10C,0.100000*%
%ADD11C,0.120000*%
%ADD12C,0.075000*%
%ADD13C,0.150000*%
%ADD14C,0.010000*%
%ADD15C,0.050000*%
G04 APERTURE END LIST*
D10*
D11*
X107390000Y-75670000D02*
X114700000Y-75670000D01*
X109300000Y-78330000D02*
X114700000Y-78330000D01*
D12*
X123400000Y-98300000D02*
X123800000Y-98300000D01*
X123800000Y-98300000D02*
X123800000Y-96700000D01*
X123800000Y-96700000D02*
X123000000Y-96700000D01*
X123000000Y-96700000D02*
X123000000Y-98300000D01*
X123000000Y-98300000D02*
X123400000Y-98300000D01*
D13*
X120300000Y-76850000D02*
X120300000Y-82350000D01*
X120300000Y-82350000D02*
X122300000Y-82350000D01*
X122300000Y-82350000D02*
X122300000Y-76850000D01*
X122300000Y-76850000D02*
X120300000Y-76850000D01*
X129600000Y-82350000D02*
X129600000Y-76850000D01*
X129600000Y-76850000D02*
X127600000Y-76850000D01*
X127600000Y-76850000D02*
X127600000Y-82350000D01*
X127600000Y-82350000D02*
X129600000Y-82350000D01*
D12*
X124700000Y-98300000D02*
X125100000Y-98300000D01*
X125100000Y-98300000D02*
X125100000Y-96700000D01*
X125100000Y-96700000D02*
X124300000Y-96700000D01*
X124300000Y-96700000D02*
X124300000Y-98300000D01*
X124300000Y-98300000D02*
X124700000Y-98300000D01*
X122100000Y-96700000D02*
X121700000Y-96700000D01*
X121700000Y-96700000D02*
X121700000Y-98300000D01*
X121700000Y-98300000D02*
X122500000Y-98300000D01*
X122500000Y-98300000D02*
X122500000Y-96700000D01*
X122500000Y-96700000D02*
X122100000Y-96700000D01*
X120300000Y-85300000D02*
X119900000Y-85300000D01*
X119900000Y-85300000D02*
X119900000Y-86900000D01*
X119900000Y-86900000D02*
X120700000Y-86900000D01*
X120700000Y-86900000D02*
X120700000Y-85300000D01*
X120700000Y-85300000D02*
X120300000Y-85300000D01*
X121700000Y-86900000D02*
X122100000Y-86900000D01*
X122100000Y-86900000D02*
X122100000Y-85300000D01*
X122100000Y-85300000D02*
X121300000Y-85300000D01*
X121300000Y-85300000D02*
X121300000Y-86900000D01*
X121300000Y-86900000D02*
X121700000Y-86900000D01*
D11*
X119810000Y-102570000D02*
X119810000Y-104440000D01*
X119810000Y-109430000D02*
X119810000Y-107560000D01*
X128190000Y-110190000D02*
X128190000Y-107560000D01*
X128190000Y-101810000D02*
X128190000Y-104440000D01*
X128190000Y-110190000D02*
X120570000Y-110190000D01*
X120570000Y-110190000D02*
X119810000Y-109430000D01*
X119810000Y-102570000D02*
X120570000Y-101810000D01*
X120570000Y-101810000D02*
X128190000Y-101810000D01*
X116690000Y-118430000D02*
X116690000Y-116560000D01*
X116690000Y-111570000D02*
X116690000Y-113440000D01*
X108310000Y-110810000D02*
X108310000Y-113440000D01*
X108310000Y-119190000D02*
X108310000Y-116560000D01*
X108310000Y-110810000D02*
X115930000Y-110810000D01*
X115930000Y-110810000D02*
X116690000Y-111570000D01*
X116690000Y-118430000D02*
X115930000Y-119190000D01*
X115930000Y-119190000D02*
X108310000Y-119190000D01*
X116690000Y-109430000D02*
X116690000Y-107560000D01*
X116690000Y-102570000D02*
X116690000Y-104440000D01*
X108310000Y-101810000D02*
X108310000Y-104440000D01*
X108310000Y-110190000D02*
X108310000Y-107560000D01*
X108310000Y-101810000D02*
X115930000Y-101810000D01*
X115930000Y-101810000D02*
X116690000Y-102570000D01*
X116690000Y-109430000D02*
X115930000Y-110190000D01*
X115930000Y-110190000D02*
X108310000Y-110190000D01*
X119810000Y-111570000D02*
X119810000Y-113440000D01*
X119810000Y-118430000D02*
X119810000Y-116560000D01*
X128190000Y-119190000D02*
X128190000Y-116560000D01*
X128190000Y-110810000D02*
X128190000Y-113440000D01*
X128190000Y-119190000D02*
X120570000Y-119190000D01*
X120570000Y-119190000D02*
X119810000Y-118430000D01*
X119810000Y-111570000D02*
X120570000Y-110810000D01*
X120570000Y-110810000D02*
X128190000Y-110810000D01*
X105890000Y-110330000D02*
X105890000Y-61950000D01*
X105890000Y-61950000D02*
X100570000Y-61950000D01*
X100570000Y-61950000D02*
X100570000Y-112990000D01*
X100570000Y-112990000D02*
X103230000Y-112990000D01*
X103230000Y-112990000D02*
X103230000Y-110330000D01*
X103230000Y-110330000D02*
X105890000Y-110330000D01*
X105890000Y-111600000D02*
X105890000Y-112990000D01*
X105890000Y-112990000D02*
X104500000Y-112990000D01*
X122940000Y-83250000D02*
X124660000Y-83250000D01*
X124660000Y-83250000D02*
X124660000Y-79530000D01*
X124660000Y-79530000D02*
X122940000Y-79530000D01*
X122940000Y-79530000D02*
X122940000Y-83250000D01*
X123800000Y-84320000D02*
X123800000Y-83250000D01*
X123800000Y-78460000D02*
X123800000Y-79530000D01*
X125340000Y-83250000D02*
X127060000Y-83250000D01*
X127060000Y-83250000D02*
X127060000Y-79530000D01*
X127060000Y-79530000D02*
X125340000Y-79530000D01*
X125340000Y-79530000D02*
X125340000Y-83250000D01*
X126200000Y-84320000D02*
X126200000Y-83250000D01*
X126200000Y-78460000D02*
X126200000Y-79530000D01*
D13*
X126810000Y-90122000D02*
X119190000Y-90122000D01*
X119190000Y-93678000D02*
X126810000Y-93678000D01*
X126810000Y-90122000D02*
X126810000Y-93678000D01*
X119190000Y-93678000D02*
X119190000Y-90122000D01*
X120057210Y-93170000D02*
G75*
G03X120057210Y-93170000I-359210J0D01*
G01*
X119190000Y-91265000D02*
X119952000Y-91265000D01*
X119952000Y-91265000D02*
X119952000Y-92535000D01*
X119952000Y-92535000D02*
X119190000Y-92535000D01*
D11*
X109330000Y-81390000D02*
X109330000Y-88700000D01*
X106670000Y-83300000D02*
X106670000Y-88700000D01*
X117330000Y-81390000D02*
X117330000Y-88700000D01*
X114670000Y-83300000D02*
X114670000Y-88700000D01*
X107390000Y-69670000D02*
X114700000Y-69670000D01*
X109300000Y-72330000D02*
X114700000Y-72330000D01*
X107390000Y-97670000D02*
X114700000Y-97670000D01*
X109300000Y-100330000D02*
X114700000Y-100330000D01*
X107390000Y-92670000D02*
X114700000Y-92670000D01*
X109300000Y-95330000D02*
X114700000Y-95330000D01*
D14*
G36*
X114843866Y-65978400D02*
X107173067Y-65978400D01*
X107173067Y-61119926D01*
X107443705Y-61119926D01*
X107443794Y-61452982D01*
X107443982Y-61784517D01*
X107444268Y-62112791D01*
X107444652Y-62436064D01*
X107445134Y-62752595D01*
X107445713Y-63060645D01*
X107446390Y-63358473D01*
X107447163Y-63644339D01*
X107448032Y-63916503D01*
X107448997Y-64173224D01*
X107450058Y-64412762D01*
X107451214Y-64633377D01*
X107452465Y-64833329D01*
X107453810Y-65010877D01*
X107455250Y-65164282D01*
X107456783Y-65291802D01*
X107458410Y-65391698D01*
X107460130Y-65462230D01*
X107461942Y-65501657D01*
X107463049Y-65509613D01*
X107523407Y-65591130D01*
X107608195Y-65653792D01*
X107706467Y-65691740D01*
X107728311Y-65692985D01*
X107782361Y-65694170D01*
X107866955Y-65695289D01*
X107980431Y-65696338D01*
X108121129Y-65697312D01*
X108287386Y-65698205D01*
X108477542Y-65699014D01*
X108689935Y-65699732D01*
X108922903Y-65700355D01*
X109174786Y-65700879D01*
X109443921Y-65701297D01*
X109728649Y-65701606D01*
X110027306Y-65701800D01*
X110338232Y-65701875D01*
X110659766Y-65701826D01*
X110990245Y-65701647D01*
X111042333Y-65701607D01*
X111434546Y-65701287D01*
X111794320Y-65700968D01*
X112123082Y-65700634D01*
X112422261Y-65700272D01*
X112693284Y-65699865D01*
X112937579Y-65699401D01*
X113156574Y-65698864D01*
X113351696Y-65698239D01*
X113524373Y-65697512D01*
X113676033Y-65696668D01*
X113808103Y-65695694D01*
X113922011Y-65694573D01*
X114019185Y-65693292D01*
X114101052Y-65691836D01*
X114169041Y-65690190D01*
X114224579Y-65688339D01*
X114269093Y-65686270D01*
X114304012Y-65683967D01*
X114330763Y-65681417D01*
X114350773Y-65678603D01*
X114365471Y-65675512D01*
X114376285Y-65672129D01*
X114384641Y-65668440D01*
X114386666Y-65667386D01*
X114478643Y-65604861D01*
X114541200Y-65531915D01*
X114549142Y-65517808D01*
X114551787Y-65495944D01*
X114554295Y-65441928D01*
X114556666Y-65357475D01*
X114558899Y-65244297D01*
X114560995Y-65104110D01*
X114562953Y-64938627D01*
X114564774Y-64749563D01*
X114566458Y-64538631D01*
X114568004Y-64307547D01*
X114569413Y-64058024D01*
X114570684Y-63791777D01*
X114571819Y-63510519D01*
X114572815Y-63215964D01*
X114573675Y-62909828D01*
X114574397Y-62593824D01*
X114574982Y-62269666D01*
X114575429Y-61939068D01*
X114575739Y-61603746D01*
X114575912Y-61265412D01*
X114575947Y-60925781D01*
X114575845Y-60586567D01*
X114575605Y-60249485D01*
X114575229Y-59916248D01*
X114574714Y-59588571D01*
X114574063Y-59268168D01*
X114573274Y-58956753D01*
X114572347Y-58656040D01*
X114571284Y-58367744D01*
X114570083Y-58093578D01*
X114568744Y-57835257D01*
X114567268Y-57594495D01*
X114565655Y-57373006D01*
X114563905Y-57172505D01*
X114562017Y-56994705D01*
X114559992Y-56841321D01*
X114557829Y-56714067D01*
X114555529Y-56614656D01*
X114553092Y-56544804D01*
X114550517Y-56506225D01*
X114549142Y-56499126D01*
X114492251Y-56424601D01*
X114405372Y-56359973D01*
X114386666Y-56349548D01*
X114378619Y-56345711D01*
X114368516Y-56342198D01*
X114354903Y-56338994D01*
X114336329Y-56336085D01*
X114311338Y-56333456D01*
X114278479Y-56331094D01*
X114236298Y-56328984D01*
X114183341Y-56327112D01*
X114118155Y-56325464D01*
X114039288Y-56324025D01*
X113945286Y-56322782D01*
X113834695Y-56321720D01*
X113706062Y-56320825D01*
X113557935Y-56320083D01*
X113388860Y-56319479D01*
X113197383Y-56319000D01*
X112982051Y-56318630D01*
X112741412Y-56318357D01*
X112474012Y-56318166D01*
X112178397Y-56318042D01*
X111853114Y-56317971D01*
X111496711Y-56317940D01*
X111152400Y-56317934D01*
X110758754Y-56317900D01*
X110397518Y-56317833D01*
X110067237Y-56317786D01*
X109766454Y-56317810D01*
X109493714Y-56317957D01*
X109247561Y-56318279D01*
X109026538Y-56318830D01*
X108829190Y-56319660D01*
X108654060Y-56320821D01*
X108499693Y-56322366D01*
X108364633Y-56324348D01*
X108247424Y-56326817D01*
X108146609Y-56329826D01*
X108060732Y-56333427D01*
X107988339Y-56337672D01*
X107927972Y-56342614D01*
X107878176Y-56348304D01*
X107837494Y-56354794D01*
X107804471Y-56362137D01*
X107777651Y-56370385D01*
X107755578Y-56379589D01*
X107736795Y-56389801D01*
X107719847Y-56401075D01*
X107703278Y-56413461D01*
X107685632Y-56427013D01*
X107665452Y-56441781D01*
X107664133Y-56442704D01*
X107579231Y-56518283D01*
X107517698Y-56611947D01*
X107477302Y-56727822D01*
X107461263Y-56817467D01*
X107459407Y-56848769D01*
X107457656Y-56911615D01*
X107456011Y-57004265D01*
X107454471Y-57124978D01*
X107453035Y-57272015D01*
X107451703Y-57443634D01*
X107450475Y-57638096D01*
X107449350Y-57853661D01*
X107448329Y-58088588D01*
X107447410Y-58341136D01*
X107446594Y-58609567D01*
X107445879Y-58892139D01*
X107445267Y-59187113D01*
X107444755Y-59492747D01*
X107444345Y-59807302D01*
X107444035Y-60129038D01*
X107443825Y-60456214D01*
X107443715Y-60787090D01*
X107443705Y-61119926D01*
X107173067Y-61119926D01*
X107173067Y-56038534D01*
X114843866Y-56038534D01*
X114843866Y-65978400D01*
X114843866Y-65978400D01*
G37*
X114843866Y-65978400D02*
X107173067Y-65978400D01*
X107173067Y-61119926D01*
X107443705Y-61119926D01*
X107443794Y-61452982D01*
X107443982Y-61784517D01*
X107444268Y-62112791D01*
X107444652Y-62436064D01*
X107445134Y-62752595D01*
X107445713Y-63060645D01*
X107446390Y-63358473D01*
X107447163Y-63644339D01*
X107448032Y-63916503D01*
X107448997Y-64173224D01*
X107450058Y-64412762D01*
X107451214Y-64633377D01*
X107452465Y-64833329D01*
X107453810Y-65010877D01*
X107455250Y-65164282D01*
X107456783Y-65291802D01*
X107458410Y-65391698D01*
X107460130Y-65462230D01*
X107461942Y-65501657D01*
X107463049Y-65509613D01*
X107523407Y-65591130D01*
X107608195Y-65653792D01*
X107706467Y-65691740D01*
X107728311Y-65692985D01*
X107782361Y-65694170D01*
X107866955Y-65695289D01*
X107980431Y-65696338D01*
X108121129Y-65697312D01*
X108287386Y-65698205D01*
X108477542Y-65699014D01*
X108689935Y-65699732D01*
X108922903Y-65700355D01*
X109174786Y-65700879D01*
X109443921Y-65701297D01*
X109728649Y-65701606D01*
X110027306Y-65701800D01*
X110338232Y-65701875D01*
X110659766Y-65701826D01*
X110990245Y-65701647D01*
X111042333Y-65701607D01*
X111434546Y-65701287D01*
X111794320Y-65700968D01*
X112123082Y-65700634D01*
X112422261Y-65700272D01*
X112693284Y-65699865D01*
X112937579Y-65699401D01*
X113156574Y-65698864D01*
X113351696Y-65698239D01*
X113524373Y-65697512D01*
X113676033Y-65696668D01*
X113808103Y-65695694D01*
X113922011Y-65694573D01*
X114019185Y-65693292D01*
X114101052Y-65691836D01*
X114169041Y-65690190D01*
X114224579Y-65688339D01*
X114269093Y-65686270D01*
X114304012Y-65683967D01*
X114330763Y-65681417D01*
X114350773Y-65678603D01*
X114365471Y-65675512D01*
X114376285Y-65672129D01*
X114384641Y-65668440D01*
X114386666Y-65667386D01*
X114478643Y-65604861D01*
X114541200Y-65531915D01*
X114549142Y-65517808D01*
X114551787Y-65495944D01*
X114554295Y-65441928D01*
X114556666Y-65357475D01*
X114558899Y-65244297D01*
X114560995Y-65104110D01*
X114562953Y-64938627D01*
X114564774Y-64749563D01*
X114566458Y-64538631D01*
X114568004Y-64307547D01*
X114569413Y-64058024D01*
X114570684Y-63791777D01*
X114571819Y-63510519D01*
X114572815Y-63215964D01*
X114573675Y-62909828D01*
X114574397Y-62593824D01*
X114574982Y-62269666D01*
X114575429Y-61939068D01*
X114575739Y-61603746D01*
X114575912Y-61265412D01*
X114575947Y-60925781D01*
X114575845Y-60586567D01*
X114575605Y-60249485D01*
X114575229Y-59916248D01*
X114574714Y-59588571D01*
X114574063Y-59268168D01*
X114573274Y-58956753D01*
X114572347Y-58656040D01*
X114571284Y-58367744D01*
X114570083Y-58093578D01*
X114568744Y-57835257D01*
X114567268Y-57594495D01*
X114565655Y-57373006D01*
X114563905Y-57172505D01*
X114562017Y-56994705D01*
X114559992Y-56841321D01*
X114557829Y-56714067D01*
X114555529Y-56614656D01*
X114553092Y-56544804D01*
X114550517Y-56506225D01*
X114549142Y-56499126D01*
X114492251Y-56424601D01*
X114405372Y-56359973D01*
X114386666Y-56349548D01*
X114378619Y-56345711D01*
X114368516Y-56342198D01*
X114354903Y-56338994D01*
X114336329Y-56336085D01*
X114311338Y-56333456D01*
X114278479Y-56331094D01*
X114236298Y-56328984D01*
X114183341Y-56327112D01*
X114118155Y-56325464D01*
X114039288Y-56324025D01*
X113945286Y-56322782D01*
X113834695Y-56321720D01*
X113706062Y-56320825D01*
X113557935Y-56320083D01*
X113388860Y-56319479D01*
X113197383Y-56319000D01*
X112982051Y-56318630D01*
X112741412Y-56318357D01*
X112474012Y-56318166D01*
X112178397Y-56318042D01*
X111853114Y-56317971D01*
X111496711Y-56317940D01*
X111152400Y-56317934D01*
X110758754Y-56317900D01*
X110397518Y-56317833D01*
X110067237Y-56317786D01*
X109766454Y-56317810D01*
X109493714Y-56317957D01*
X109247561Y-56318279D01*
X109026538Y-56318830D01*
X108829190Y-56319660D01*
X108654060Y-56320821D01*
X108499693Y-56322366D01*
X108364633Y-56324348D01*
X108247424Y-56326817D01*
X108146609Y-56329826D01*
X108060732Y-56333427D01*
X107988339Y-56337672D01*
X107927972Y-56342614D01*
X107878176Y-56348304D01*
X107837494Y-56354794D01*
X107804471Y-56362137D01*
X107777651Y-56370385D01*
X107755578Y-56379589D01*
X107736795Y-56389801D01*
X107719847Y-56401075D01*
X107703278Y-56413461D01*
X107685632Y-56427013D01*
X107665452Y-56441781D01*
X107664133Y-56442704D01*
X107579231Y-56518283D01*
X107517698Y-56611947D01*
X107477302Y-56727822D01*
X107461263Y-56817467D01*
X107459407Y-56848769D01*
X107457656Y-56911615D01*
X107456011Y-57004265D01*
X107454471Y-57124978D01*
X107453035Y-57272015D01*
X107451703Y-57443634D01*
X107450475Y-57638096D01*
X107449350Y-57853661D01*
X107448329Y-58088588D01*
X107447410Y-58341136D01*
X107446594Y-58609567D01*
X107445879Y-58892139D01*
X107445267Y-59187113D01*
X107444755Y-59492747D01*
X107444345Y-59807302D01*
X107444035Y-60129038D01*
X107443825Y-60456214D01*
X107443715Y-60787090D01*
X107443705Y-61119926D01*
X107173067Y-61119926D01*
X107173067Y-56038534D01*
X114843866Y-56038534D01*
X114843866Y-65978400D01*
G36*
X109382867Y-64615267D02*
X109343859Y-64699934D01*
X109297462Y-64783407D01*
X109241348Y-64845906D01*
X109166024Y-64896628D01*
X109114495Y-64922141D01*
X109076332Y-64938944D01*
X109042183Y-64951327D01*
X109005892Y-64960055D01*
X108961304Y-64965892D01*
X108902264Y-64969601D01*
X108822615Y-64971947D01*
X108716204Y-64973694D01*
X108697067Y-64973958D01*
X108551321Y-64974534D01*
X108437376Y-64971768D01*
X108353321Y-64965575D01*
X108299133Y-64956368D01*
X108169203Y-64909477D01*
X108066482Y-64842740D01*
X107990386Y-64755663D01*
X107942822Y-64655460D01*
X107935529Y-64628846D01*
X107929790Y-64595357D01*
X107925483Y-64551259D01*
X107922488Y-64492818D01*
X107920682Y-64416302D01*
X107919944Y-64317975D01*
X107920002Y-64283180D01*
X108173461Y-64283180D01*
X108173675Y-64375119D01*
X108174962Y-64445441D01*
X108177521Y-64498226D01*
X108181549Y-64537557D01*
X108187243Y-64567514D01*
X108194800Y-64592181D01*
X108204367Y-64615520D01*
X108228765Y-64661984D01*
X108258625Y-64697353D01*
X108298615Y-64723085D01*
X108353403Y-64740636D01*
X108427657Y-64751464D01*
X108526045Y-64757028D01*
X108653234Y-64758784D01*
X108663200Y-64758802D01*
X108772137Y-64758377D01*
X108853019Y-64756459D01*
X108911643Y-64752546D01*
X108953807Y-64746136D01*
X108985307Y-64736728D01*
X109001290Y-64729541D01*
X109049767Y-64694131D01*
X109090727Y-64646678D01*
X109094424Y-64640667D01*
X109104582Y-64621217D01*
X109112609Y-64599072D01*
X109118813Y-64570066D01*
X109123501Y-64530035D01*
X109126980Y-64474816D01*
X109129559Y-64400243D01*
X109131545Y-64302152D01*
X109133246Y-64176379D01*
X109134060Y-64104175D01*
X109135367Y-63947517D01*
X109135234Y-63820744D01*
X109133222Y-63719886D01*
X109128891Y-63640976D01*
X109121804Y-63580045D01*
X109111521Y-63533126D01*
X109097604Y-63496251D01*
X109079614Y-63465451D01*
X109060751Y-63441034D01*
X109020454Y-63401322D01*
X108971996Y-63371599D01*
X108909894Y-63350349D01*
X108828668Y-63336057D01*
X108722838Y-63327207D01*
X108635896Y-63323583D01*
X108538050Y-63321088D01*
X108466852Y-63321006D01*
X108415131Y-63323946D01*
X108375715Y-63330515D01*
X108341435Y-63341323D01*
X108319598Y-63350427D01*
X108283320Y-63367235D01*
X108253983Y-63384668D01*
X108230809Y-63406326D01*
X108213022Y-63435812D01*
X108199842Y-63476729D01*
X108190494Y-63532677D01*
X108184198Y-63607259D01*
X108180179Y-63704077D01*
X108177657Y-63826734D01*
X108175856Y-63978830D01*
X108175465Y-64018119D01*
X108174123Y-64165540D01*
X108173461Y-64283180D01*
X107920002Y-64283180D01*
X107920152Y-64194106D01*
X107921185Y-64040960D01*
X107921523Y-64001621D01*
X107926600Y-63427197D01*
X107977800Y-63344422D01*
X108030808Y-63272457D01*
X108093297Y-63216194D01*
X108169511Y-63174116D01*
X108263696Y-63144709D01*
X108380097Y-63126457D01*
X108522959Y-63117844D01*
X108615776Y-63116667D01*
X108749137Y-63119244D01*
X108854565Y-63127863D01*
X108937665Y-63143858D01*
X109004043Y-63168562D01*
X109059302Y-63203309D01*
X109089199Y-63229288D01*
X109137333Y-63275403D01*
X109137333Y-62456267D01*
X109392523Y-62456267D01*
X109382867Y-64615267D01*
X109382867Y-64615267D01*
G37*
X109382867Y-64615267D02*
X109343859Y-64699934D01*
X109297462Y-64783407D01*
X109241348Y-64845906D01*
X109166024Y-64896628D01*
X109114495Y-64922141D01*
X109076332Y-64938944D01*
X109042183Y-64951327D01*
X109005892Y-64960055D01*
X108961304Y-64965892D01*
X108902264Y-64969601D01*
X108822615Y-64971947D01*
X108716204Y-64973694D01*
X108697067Y-64973958D01*
X108551321Y-64974534D01*
X108437376Y-64971768D01*
X108353321Y-64965575D01*
X108299133Y-64956368D01*
X108169203Y-64909477D01*
X108066482Y-64842740D01*
X107990386Y-64755663D01*
X107942822Y-64655460D01*
X107935529Y-64628846D01*
X107929790Y-64595357D01*
X107925483Y-64551259D01*
X107922488Y-64492818D01*
X107920682Y-64416302D01*
X107919944Y-64317975D01*
X107920002Y-64283180D01*
X108173461Y-64283180D01*
X108173675Y-64375119D01*
X108174962Y-64445441D01*
X108177521Y-64498226D01*
X108181549Y-64537557D01*
X108187243Y-64567514D01*
X108194800Y-64592181D01*
X108204367Y-64615520D01*
X108228765Y-64661984D01*
X108258625Y-64697353D01*
X108298615Y-64723085D01*
X108353403Y-64740636D01*
X108427657Y-64751464D01*
X108526045Y-64757028D01*
X108653234Y-64758784D01*
X108663200Y-64758802D01*
X108772137Y-64758377D01*
X108853019Y-64756459D01*
X108911643Y-64752546D01*
X108953807Y-64746136D01*
X108985307Y-64736728D01*
X109001290Y-64729541D01*
X109049767Y-64694131D01*
X109090727Y-64646678D01*
X109094424Y-64640667D01*
X109104582Y-64621217D01*
X109112609Y-64599072D01*
X109118813Y-64570066D01*
X109123501Y-64530035D01*
X109126980Y-64474816D01*
X109129559Y-64400243D01*
X109131545Y-64302152D01*
X109133246Y-64176379D01*
X109134060Y-64104175D01*
X109135367Y-63947517D01*
X109135234Y-63820744D01*
X109133222Y-63719886D01*
X109128891Y-63640976D01*
X109121804Y-63580045D01*
X109111521Y-63533126D01*
X109097604Y-63496251D01*
X109079614Y-63465451D01*
X109060751Y-63441034D01*
X109020454Y-63401322D01*
X108971996Y-63371599D01*
X108909894Y-63350349D01*
X108828668Y-63336057D01*
X108722838Y-63327207D01*
X108635896Y-63323583D01*
X108538050Y-63321088D01*
X108466852Y-63321006D01*
X108415131Y-63323946D01*
X108375715Y-63330515D01*
X108341435Y-63341323D01*
X108319598Y-63350427D01*
X108283320Y-63367235D01*
X108253983Y-63384668D01*
X108230809Y-63406326D01*
X108213022Y-63435812D01*
X108199842Y-63476729D01*
X108190494Y-63532677D01*
X108184198Y-63607259D01*
X108180179Y-63704077D01*
X108177657Y-63826734D01*
X108175856Y-63978830D01*
X108175465Y-64018119D01*
X108174123Y-64165540D01*
X108173461Y-64283180D01*
X107920002Y-64283180D01*
X107920152Y-64194106D01*
X107921185Y-64040960D01*
X107921523Y-64001621D01*
X107926600Y-63427197D01*
X107977800Y-63344422D01*
X108030808Y-63272457D01*
X108093297Y-63216194D01*
X108169511Y-63174116D01*
X108263696Y-63144709D01*
X108380097Y-63126457D01*
X108522959Y-63117844D01*
X108615776Y-63116667D01*
X108749137Y-63119244D01*
X108854565Y-63127863D01*
X108937665Y-63143858D01*
X109004043Y-63168562D01*
X109059302Y-63203309D01*
X109089199Y-63229288D01*
X109137333Y-63275403D01*
X109137333Y-62456267D01*
X109392523Y-62456267D01*
X109382867Y-64615267D01*
G36*
X110699458Y-63125826D02*
X110785900Y-63126965D01*
X110850439Y-63129645D01*
X110899057Y-63134409D01*
X110937734Y-63141797D01*
X110972450Y-63152354D01*
X111001343Y-63163425D01*
X111117868Y-63225877D01*
X111209103Y-63308012D01*
X111272567Y-63407594D01*
X111272764Y-63408030D01*
X111283876Y-63433391D01*
X111292743Y-63457616D01*
X111299620Y-63484705D01*
X111304758Y-63518656D01*
X111308412Y-63563469D01*
X111310834Y-63623142D01*
X111312277Y-63701675D01*
X111312995Y-63803067D01*
X111313240Y-63931315D01*
X111313266Y-64048000D01*
X111313266Y-64598334D01*
X111262466Y-64699932D01*
X111193315Y-64803343D01*
X111101436Y-64881843D01*
X110986072Y-64936069D01*
X110978086Y-64938660D01*
X110923691Y-64950113D01*
X110843717Y-64959670D01*
X110746412Y-64967053D01*
X110640024Y-64971987D01*
X110532803Y-64974195D01*
X110432996Y-64973402D01*
X110348852Y-64969330D01*
X110288800Y-64961741D01*
X110153658Y-64921257D01*
X110045153Y-64860993D01*
X109961725Y-64779927D01*
X109924094Y-64722760D01*
X109873933Y-64632200D01*
X109868820Y-64083886D01*
X109868394Y-64031712D01*
X110119493Y-64031712D01*
X110119573Y-64175342D01*
X110120014Y-64289270D01*
X110121091Y-64377661D01*
X110123079Y-64444682D01*
X110126254Y-64494497D01*
X110130892Y-64531270D01*
X110137268Y-64559168D01*
X110145657Y-64582355D01*
X110156335Y-64604996D01*
X110157567Y-64607446D01*
X110201749Y-64672108D01*
X110264006Y-64717371D01*
X110271221Y-64721100D01*
X110304141Y-64736176D01*
X110337572Y-64746686D01*
X110378393Y-64753435D01*
X110433482Y-64757232D01*
X110509717Y-64758882D01*
X110596085Y-64759200D01*
X110688573Y-64757999D01*
X110772454Y-64754698D01*
X110840218Y-64749753D01*
X110884354Y-64743620D01*
X110893064Y-64741190D01*
X110970002Y-64695251D01*
X111023933Y-64624752D01*
X111051333Y-64544964D01*
X111057646Y-64493872D01*
X111062199Y-64411220D01*
X111064938Y-64299270D01*
X111065807Y-64160285D01*
X111064753Y-63996528D01*
X111064711Y-63992916D01*
X111062537Y-63839157D01*
X111059447Y-63715493D01*
X111054563Y-63618154D01*
X111047012Y-63543368D01*
X111035917Y-63487363D01*
X111020403Y-63446369D01*
X110999594Y-63416614D01*
X110972616Y-63394328D01*
X110938592Y-63375738D01*
X110919401Y-63366976D01*
X110888134Y-63354686D01*
X110854847Y-63346090D01*
X110813364Y-63340720D01*
X110757508Y-63338107D01*
X110681102Y-63337780D01*
X110577971Y-63339272D01*
X110559543Y-63339628D01*
X110453116Y-63342087D01*
X110374940Y-63345079D01*
X110319399Y-63349293D01*
X110280878Y-63355414D01*
X110253760Y-63364129D01*
X110232431Y-63376124D01*
X110226494Y-63380337D01*
X110197593Y-63402853D01*
X110174422Y-63426005D01*
X110156349Y-63453639D01*
X110142741Y-63489602D01*
X110132968Y-63537740D01*
X110126398Y-63601899D01*
X110122397Y-63685925D01*
X110120336Y-63793665D01*
X110119582Y-63928964D01*
X110119493Y-64031712D01*
X109868394Y-64031712D01*
X109867558Y-63929669D01*
X109867056Y-63805248D01*
X109867470Y-63706559D01*
X109868956Y-63629539D01*
X109871671Y-63570121D01*
X109875771Y-63524242D01*
X109881413Y-63487837D01*
X109888753Y-63456842D01*
X109893573Y-63440621D01*
X109943309Y-63337525D01*
X110021032Y-63250763D01*
X110123449Y-63183690D01*
X110163377Y-63165939D01*
X110200953Y-63151898D01*
X110236848Y-63141585D01*
X110277126Y-63134419D01*
X110327850Y-63129823D01*
X110395082Y-63127217D01*
X110484887Y-63126024D01*
X110585133Y-63125685D01*
X110699458Y-63125826D01*
X110699458Y-63125826D01*
G37*
X110699458Y-63125826D02*
X110785900Y-63126965D01*
X110850439Y-63129645D01*
X110899057Y-63134409D01*
X110937734Y-63141797D01*
X110972450Y-63152354D01*
X111001343Y-63163425D01*
X111117868Y-63225877D01*
X111209103Y-63308012D01*
X111272567Y-63407594D01*
X111272764Y-63408030D01*
X111283876Y-63433391D01*
X111292743Y-63457616D01*
X111299620Y-63484705D01*
X111304758Y-63518656D01*
X111308412Y-63563469D01*
X111310834Y-63623142D01*
X111312277Y-63701675D01*
X111312995Y-63803067D01*
X111313240Y-63931315D01*
X111313266Y-64048000D01*
X111313266Y-64598334D01*
X111262466Y-64699932D01*
X111193315Y-64803343D01*
X111101436Y-64881843D01*
X110986072Y-64936069D01*
X110978086Y-64938660D01*
X110923691Y-64950113D01*
X110843717Y-64959670D01*
X110746412Y-64967053D01*
X110640024Y-64971987D01*
X110532803Y-64974195D01*
X110432996Y-64973402D01*
X110348852Y-64969330D01*
X110288800Y-64961741D01*
X110153658Y-64921257D01*
X110045153Y-64860993D01*
X109961725Y-64779927D01*
X109924094Y-64722760D01*
X109873933Y-64632200D01*
X109868820Y-64083886D01*
X109868394Y-64031712D01*
X110119493Y-64031712D01*
X110119573Y-64175342D01*
X110120014Y-64289270D01*
X110121091Y-64377661D01*
X110123079Y-64444682D01*
X110126254Y-64494497D01*
X110130892Y-64531270D01*
X110137268Y-64559168D01*
X110145657Y-64582355D01*
X110156335Y-64604996D01*
X110157567Y-64607446D01*
X110201749Y-64672108D01*
X110264006Y-64717371D01*
X110271221Y-64721100D01*
X110304141Y-64736176D01*
X110337572Y-64746686D01*
X110378393Y-64753435D01*
X110433482Y-64757232D01*
X110509717Y-64758882D01*
X110596085Y-64759200D01*
X110688573Y-64757999D01*
X110772454Y-64754698D01*
X110840218Y-64749753D01*
X110884354Y-64743620D01*
X110893064Y-64741190D01*
X110970002Y-64695251D01*
X111023933Y-64624752D01*
X111051333Y-64544964D01*
X111057646Y-64493872D01*
X111062199Y-64411220D01*
X111064938Y-64299270D01*
X111065807Y-64160285D01*
X111064753Y-63996528D01*
X111064711Y-63992916D01*
X111062537Y-63839157D01*
X111059447Y-63715493D01*
X111054563Y-63618154D01*
X111047012Y-63543368D01*
X111035917Y-63487363D01*
X111020403Y-63446369D01*
X110999594Y-63416614D01*
X110972616Y-63394328D01*
X110938592Y-63375738D01*
X110919401Y-63366976D01*
X110888134Y-63354686D01*
X110854847Y-63346090D01*
X110813364Y-63340720D01*
X110757508Y-63338107D01*
X110681102Y-63337780D01*
X110577971Y-63339272D01*
X110559543Y-63339628D01*
X110453116Y-63342087D01*
X110374940Y-63345079D01*
X110319399Y-63349293D01*
X110280878Y-63355414D01*
X110253760Y-63364129D01*
X110232431Y-63376124D01*
X110226494Y-63380337D01*
X110197593Y-63402853D01*
X110174422Y-63426005D01*
X110156349Y-63453639D01*
X110142741Y-63489602D01*
X110132968Y-63537740D01*
X110126398Y-63601899D01*
X110122397Y-63685925D01*
X110120336Y-63793665D01*
X110119582Y-63928964D01*
X110119493Y-64031712D01*
X109868394Y-64031712D01*
X109867558Y-63929669D01*
X109867056Y-63805248D01*
X109867470Y-63706559D01*
X109868956Y-63629539D01*
X109871671Y-63570121D01*
X109875771Y-63524242D01*
X109881413Y-63487837D01*
X109888753Y-63456842D01*
X109893573Y-63440621D01*
X109943309Y-63337525D01*
X110021032Y-63250763D01*
X110123449Y-63183690D01*
X110163377Y-63165939D01*
X110200953Y-63151898D01*
X110236848Y-63141585D01*
X110277126Y-63134419D01*
X110327850Y-63129823D01*
X110395082Y-63127217D01*
X110484887Y-63126024D01*
X110585133Y-63125685D01*
X110699458Y-63125826D01*
G36*
X112426633Y-62561466D02*
X112590513Y-62563278D01*
X112724206Y-62565209D01*
X112831392Y-62567451D01*
X112915751Y-62570200D01*
X112980964Y-62573650D01*
X113030709Y-62577994D01*
X113068667Y-62583428D01*
X113098518Y-62590145D01*
X113123729Y-62598262D01*
X113225035Y-62642754D01*
X113306235Y-62696346D01*
X113369029Y-62762625D01*
X113415119Y-62845180D01*
X113446205Y-62947598D01*
X113463989Y-63073466D01*
X113470170Y-63226372D01*
X113469158Y-63326850D01*
X113466126Y-63433048D01*
X113462273Y-63512039D01*
X113456761Y-63570481D01*
X113448753Y-63615034D01*
X113437413Y-63652357D01*
X113424274Y-63683933D01*
X113356820Y-63794308D01*
X113265763Y-63880517D01*
X113151551Y-63942239D01*
X113014629Y-63979153D01*
X113012728Y-63979464D01*
X112965588Y-63984341D01*
X112890709Y-63988705D01*
X112794219Y-63992355D01*
X112682245Y-63995090D01*
X112560914Y-63996710D01*
X112474712Y-63997072D01*
X112044423Y-63997200D01*
X112055735Y-64488267D01*
X112067046Y-64979334D01*
X111812800Y-64979334D01*
X111812800Y-63777067D01*
X112066800Y-63777067D01*
X112494367Y-63776972D01*
X112623684Y-63776230D01*
X112740817Y-63774179D01*
X112840966Y-63770994D01*
X112919333Y-63766849D01*
X112971118Y-63761918D01*
X112985896Y-63759115D01*
X113065175Y-63726384D01*
X113126331Y-63675571D01*
X113170770Y-63603762D01*
X113199899Y-63508043D01*
X113215124Y-63385500D01*
X113218267Y-63277534D01*
X113212296Y-63133588D01*
X113193447Y-63018592D01*
X113160313Y-62929632D01*
X113111488Y-62863794D01*
X113045566Y-62818162D01*
X112985896Y-62795952D01*
X112949747Y-62790682D01*
X112884533Y-62786109D01*
X112795055Y-62782405D01*
X112686110Y-62779745D01*
X112562497Y-62778304D01*
X112494367Y-62778095D01*
X112066800Y-62778000D01*
X112066800Y-63777067D01*
X111812800Y-63777067D01*
X111812800Y-62555272D01*
X112426633Y-62561466D01*
X112426633Y-62561466D01*
G37*
X112426633Y-62561466D02*
X112590513Y-62563278D01*
X112724206Y-62565209D01*
X112831392Y-62567451D01*
X112915751Y-62570200D01*
X112980964Y-62573650D01*
X113030709Y-62577994D01*
X113068667Y-62583428D01*
X113098518Y-62590145D01*
X113123729Y-62598262D01*
X113225035Y-62642754D01*
X113306235Y-62696346D01*
X113369029Y-62762625D01*
X113415119Y-62845180D01*
X113446205Y-62947598D01*
X113463989Y-63073466D01*
X113470170Y-63226372D01*
X113469158Y-63326850D01*
X113466126Y-63433048D01*
X113462273Y-63512039D01*
X113456761Y-63570481D01*
X113448753Y-63615034D01*
X113437413Y-63652357D01*
X113424274Y-63683933D01*
X113356820Y-63794308D01*
X113265763Y-63880517D01*
X113151551Y-63942239D01*
X113014629Y-63979153D01*
X113012728Y-63979464D01*
X112965588Y-63984341D01*
X112890709Y-63988705D01*
X112794219Y-63992355D01*
X112682245Y-63995090D01*
X112560914Y-63996710D01*
X112474712Y-63997072D01*
X112044423Y-63997200D01*
X112055735Y-64488267D01*
X112067046Y-64979334D01*
X111812800Y-64979334D01*
X111812800Y-63777067D01*
X112066800Y-63777067D01*
X112494367Y-63776972D01*
X112623684Y-63776230D01*
X112740817Y-63774179D01*
X112840966Y-63770994D01*
X112919333Y-63766849D01*
X112971118Y-63761918D01*
X112985896Y-63759115D01*
X113065175Y-63726384D01*
X113126331Y-63675571D01*
X113170770Y-63603762D01*
X113199899Y-63508043D01*
X113215124Y-63385500D01*
X113218267Y-63277534D01*
X113212296Y-63133588D01*
X113193447Y-63018592D01*
X113160313Y-62929632D01*
X113111488Y-62863794D01*
X113045566Y-62818162D01*
X112985896Y-62795952D01*
X112949747Y-62790682D01*
X112884533Y-62786109D01*
X112795055Y-62782405D01*
X112686110Y-62779745D01*
X112562497Y-62778304D01*
X112494367Y-62778095D01*
X112066800Y-62778000D01*
X112066800Y-63777067D01*
X111812800Y-63777067D01*
X111812800Y-62555272D01*
X112426633Y-62561466D01*
G36*
X114081866Y-64979334D02*
X113827866Y-64979334D01*
X113827866Y-63116667D01*
X114081866Y-63116667D01*
X114081866Y-64979334D01*
X114081866Y-64979334D01*
G37*
X114081866Y-64979334D02*
X113827866Y-64979334D01*
X113827866Y-63116667D01*
X114081866Y-63116667D01*
X114081866Y-64979334D01*
G36*
X114081866Y-62794933D02*
X113827866Y-62794933D01*
X113827866Y-62456267D01*
X114081866Y-62456267D01*
X114081866Y-62794933D01*
X114081866Y-62794933D01*
G37*
X114081866Y-62794933D02*
X113827866Y-62794933D01*
X113827866Y-62456267D01*
X114081866Y-62456267D01*
X114081866Y-62794933D01*
G36*
X110495268Y-57107310D02*
X110743066Y-57108151D01*
X110805266Y-57108427D01*
X111038077Y-57109428D01*
X111239493Y-57110307D01*
X111411985Y-57111310D01*
X111558023Y-57112688D01*
X111680078Y-57114689D01*
X111780618Y-57117563D01*
X111862116Y-57121559D01*
X111927040Y-57126925D01*
X111977861Y-57133911D01*
X112017049Y-57142766D01*
X112047075Y-57153739D01*
X112070408Y-57167078D01*
X112089519Y-57183034D01*
X112106878Y-57201855D01*
X112124956Y-57223790D01*
X112141050Y-57243112D01*
X112177696Y-57293413D01*
X112204160Y-57343446D01*
X112211431Y-57366322D01*
X112213162Y-57392048D01*
X112214894Y-57448635D01*
X112216593Y-57533077D01*
X112218227Y-57642368D01*
X112219759Y-57773503D01*
X112221158Y-57923476D01*
X112222388Y-58089281D01*
X112223415Y-58267912D01*
X112224206Y-58456364D01*
X112224382Y-58510800D01*
X112227667Y-59603000D01*
X112271183Y-59597955D01*
X112309967Y-59597984D01*
X112368963Y-59602982D01*
X112432050Y-59611374D01*
X112585026Y-59651382D01*
X112723095Y-59718776D01*
X112843553Y-59809919D01*
X112943695Y-59921170D01*
X113020816Y-60048893D01*
X113072213Y-60189448D01*
X113095179Y-60339197D01*
X113087271Y-60492841D01*
X113047616Y-60647814D01*
X112981545Y-60785438D01*
X112892668Y-60904028D01*
X112784596Y-61001899D01*
X112660938Y-61077366D01*
X112525305Y-61128745D01*
X112381306Y-61154351D01*
X112232553Y-61152500D01*
X112082655Y-61121505D01*
X111935222Y-61059684D01*
X111906791Y-61043732D01*
X111845893Y-60999341D01*
X111777330Y-60936068D01*
X111710659Y-60864037D01*
X111655435Y-60793371D01*
X111627604Y-60747997D01*
X111610966Y-60715502D01*
X111596436Y-60686076D01*
X111583861Y-60657295D01*
X111573089Y-60626739D01*
X111563969Y-60591984D01*
X111556349Y-60550607D01*
X111550075Y-60500186D01*
X111544997Y-60438298D01*
X111540963Y-60362521D01*
X111537819Y-60270432D01*
X111535414Y-60159608D01*
X111533596Y-60027627D01*
X111532213Y-59872067D01*
X111531113Y-59690504D01*
X111530143Y-59480517D01*
X111529152Y-59239682D01*
X111528888Y-59175434D01*
X111523396Y-57850400D01*
X109949886Y-57850400D01*
X109954243Y-58946117D01*
X109958600Y-60041833D01*
X110051733Y-60046728D01*
X110210257Y-60068498D01*
X110351180Y-60117513D01*
X110479710Y-60195983D01*
X110555728Y-60260651D01*
X110647461Y-60360593D01*
X110714095Y-60466705D01*
X110763714Y-60591934D01*
X110764898Y-60595715D01*
X110792986Y-60739349D01*
X110792961Y-60891040D01*
X110765905Y-61041678D01*
X110712899Y-61182155D01*
X110690326Y-61223998D01*
X110611016Y-61329842D01*
X110506434Y-61425537D01*
X110384865Y-61505496D01*
X110254595Y-61564133D01*
X110142954Y-61593079D01*
X110077816Y-61602816D01*
X110027730Y-61606579D01*
X109978453Y-61604226D01*
X109915744Y-61595617D01*
X109884456Y-61590513D01*
X109741396Y-61550194D01*
X109608007Y-61480793D01*
X109489005Y-61386727D01*
X109389106Y-61272417D01*
X109313023Y-61142281D01*
X109268259Y-61012985D01*
X109264711Y-60990925D01*
X109261633Y-60955491D01*
X109259014Y-60904990D01*
X109256842Y-60837733D01*
X109255106Y-60752028D01*
X109253794Y-60646183D01*
X109252894Y-60518509D01*
X109252396Y-60367313D01*
X109252288Y-60190906D01*
X109252557Y-59987595D01*
X109253194Y-59755690D01*
X109254186Y-59493501D01*
X109255522Y-59199335D01*
X109255700Y-59162734D01*
X109257096Y-58880129D01*
X109258382Y-58629389D01*
X109259606Y-58408513D01*
X109260816Y-58215499D01*
X109262060Y-58048345D01*
X109263385Y-57905051D01*
X109264839Y-57783615D01*
X109266471Y-57682035D01*
X109268328Y-57598310D01*
X109270457Y-57530439D01*
X109272908Y-57476420D01*
X109275726Y-57434252D01*
X109278961Y-57401933D01*
X109282661Y-57377462D01*
X109286872Y-57358838D01*
X109291643Y-57344059D01*
X109297022Y-57331124D01*
X109299609Y-57325467D01*
X109359663Y-57232662D01*
X109440905Y-57164558D01*
X109539551Y-57124256D01*
X109546901Y-57122580D01*
X109578372Y-57118380D01*
X109631839Y-57114868D01*
X109708742Y-57112026D01*
X109810524Y-57109839D01*
X109938626Y-57108290D01*
X110094490Y-57107363D01*
X110279556Y-57107042D01*
X110495268Y-57107310D01*
X110495268Y-57107310D01*
G37*
X110495268Y-57107310D02*
X110743066Y-57108151D01*
X110805266Y-57108427D01*
X111038077Y-57109428D01*
X111239493Y-57110307D01*
X111411985Y-57111310D01*
X111558023Y-57112688D01*
X111680078Y-57114689D01*
X111780618Y-57117563D01*
X111862116Y-57121559D01*
X111927040Y-57126925D01*
X111977861Y-57133911D01*
X112017049Y-57142766D01*
X112047075Y-57153739D01*
X112070408Y-57167078D01*
X112089519Y-57183034D01*
X112106878Y-57201855D01*
X112124956Y-57223790D01*
X112141050Y-57243112D01*
X112177696Y-57293413D01*
X112204160Y-57343446D01*
X112211431Y-57366322D01*
X112213162Y-57392048D01*
X112214894Y-57448635D01*
X112216593Y-57533077D01*
X112218227Y-57642368D01*
X112219759Y-57773503D01*
X112221158Y-57923476D01*
X112222388Y-58089281D01*
X112223415Y-58267912D01*
X112224206Y-58456364D01*
X112224382Y-58510800D01*
X112227667Y-59603000D01*
X112271183Y-59597955D01*
X112309967Y-59597984D01*
X112368963Y-59602982D01*
X112432050Y-59611374D01*
X112585026Y-59651382D01*
X112723095Y-59718776D01*
X112843553Y-59809919D01*
X112943695Y-59921170D01*
X113020816Y-60048893D01*
X113072213Y-60189448D01*
X113095179Y-60339197D01*
X113087271Y-60492841D01*
X113047616Y-60647814D01*
X112981545Y-60785438D01*
X112892668Y-60904028D01*
X112784596Y-61001899D01*
X112660938Y-61077366D01*
X112525305Y-61128745D01*
X112381306Y-61154351D01*
X112232553Y-61152500D01*
X112082655Y-61121505D01*
X111935222Y-61059684D01*
X111906791Y-61043732D01*
X111845893Y-60999341D01*
X111777330Y-60936068D01*
X111710659Y-60864037D01*
X111655435Y-60793371D01*
X111627604Y-60747997D01*
X111610966Y-60715502D01*
X111596436Y-60686076D01*
X111583861Y-60657295D01*
X111573089Y-60626739D01*
X111563969Y-60591984D01*
X111556349Y-60550607D01*
X111550075Y-60500186D01*
X111544997Y-60438298D01*
X111540963Y-60362521D01*
X111537819Y-60270432D01*
X111535414Y-60159608D01*
X111533596Y-60027627D01*
X111532213Y-59872067D01*
X111531113Y-59690504D01*
X111530143Y-59480517D01*
X111529152Y-59239682D01*
X111528888Y-59175434D01*
X111523396Y-57850400D01*
X109949886Y-57850400D01*
X109954243Y-58946117D01*
X109958600Y-60041833D01*
X110051733Y-60046728D01*
X110210257Y-60068498D01*
X110351180Y-60117513D01*
X110479710Y-60195983D01*
X110555728Y-60260651D01*
X110647461Y-60360593D01*
X110714095Y-60466705D01*
X110763714Y-60591934D01*
X110764898Y-60595715D01*
X110792986Y-60739349D01*
X110792961Y-60891040D01*
X110765905Y-61041678D01*
X110712899Y-61182155D01*
X110690326Y-61223998D01*
X110611016Y-61329842D01*
X110506434Y-61425537D01*
X110384865Y-61505496D01*
X110254595Y-61564133D01*
X110142954Y-61593079D01*
X110077816Y-61602816D01*
X110027730Y-61606579D01*
X109978453Y-61604226D01*
X109915744Y-61595617D01*
X109884456Y-61590513D01*
X109741396Y-61550194D01*
X109608007Y-61480793D01*
X109489005Y-61386727D01*
X109389106Y-61272417D01*
X109313023Y-61142281D01*
X109268259Y-61012985D01*
X109264711Y-60990925D01*
X109261633Y-60955491D01*
X109259014Y-60904990D01*
X109256842Y-60837733D01*
X109255106Y-60752028D01*
X109253794Y-60646183D01*
X109252894Y-60518509D01*
X109252396Y-60367313D01*
X109252288Y-60190906D01*
X109252557Y-59987595D01*
X109253194Y-59755690D01*
X109254186Y-59493501D01*
X109255522Y-59199335D01*
X109255700Y-59162734D01*
X109257096Y-58880129D01*
X109258382Y-58629389D01*
X109259606Y-58408513D01*
X109260816Y-58215499D01*
X109262060Y-58048345D01*
X109263385Y-57905051D01*
X109264839Y-57783615D01*
X109266471Y-57682035D01*
X109268328Y-57598310D01*
X109270457Y-57530439D01*
X109272908Y-57476420D01*
X109275726Y-57434252D01*
X109278961Y-57401933D01*
X109282661Y-57377462D01*
X109286872Y-57358838D01*
X109291643Y-57344059D01*
X109297022Y-57331124D01*
X109299609Y-57325467D01*
X109359663Y-57232662D01*
X109440905Y-57164558D01*
X109539551Y-57124256D01*
X109546901Y-57122580D01*
X109578372Y-57118380D01*
X109631839Y-57114868D01*
X109708742Y-57112026D01*
X109810524Y-57109839D01*
X109938626Y-57108290D01*
X110094490Y-57107363D01*
X110279556Y-57107042D01*
X110495268Y-57107310D01*
D13*
X110666667Y-75074762D02*
X110809524Y-75122381D01*
X111047620Y-75122381D01*
X111142858Y-75074762D01*
X111190477Y-75027143D01*
X111238096Y-74931905D01*
X111238096Y-74836667D01*
X111190477Y-74741429D01*
X111142858Y-74693810D01*
X111047620Y-74646190D01*
X110857143Y-74598571D01*
X110761905Y-74550952D01*
X110714286Y-74503333D01*
X110666667Y-74408095D01*
X110666667Y-74312857D01*
X110714286Y-74217619D01*
X110761905Y-74170000D01*
X110857143Y-74122381D01*
X111095239Y-74122381D01*
X111238096Y-74170000D01*
X111571429Y-74122381D02*
X111809524Y-75122381D01*
X112000001Y-74408095D01*
X112190477Y-75122381D01*
X112428572Y-74122381D01*
X113238096Y-74455714D02*
X113238096Y-75122381D01*
X113000000Y-74074762D02*
X112761905Y-74789048D01*
X113380953Y-74789048D01*
D15*
X124225000Y-97558333D02*
X124241667Y-97574999D01*
X124258333Y-97624999D01*
X124258333Y-97658333D01*
X124241667Y-97708333D01*
X124208333Y-97741666D01*
X124175000Y-97758333D01*
X124108333Y-97774999D01*
X124058333Y-97774999D01*
X123991667Y-97758333D01*
X123958333Y-97741666D01*
X123925000Y-97708333D01*
X123908333Y-97658333D01*
X123908333Y-97624999D01*
X123925000Y-97574999D01*
X123941667Y-97558333D01*
X124258333Y-97224999D02*
X124258333Y-97424999D01*
X124258333Y-97324999D02*
X123908333Y-97324999D01*
X123958333Y-97358333D01*
X123991667Y-97391666D01*
X124008333Y-97424999D01*
D13*
X121357143Y-79666666D02*
X121404762Y-79714285D01*
X121452381Y-79857142D01*
X121452381Y-79952380D01*
X121404762Y-80095238D01*
X121309524Y-80190476D01*
X121214286Y-80238095D01*
X121023810Y-80285714D01*
X120880952Y-80285714D01*
X120690476Y-80238095D01*
X120595238Y-80190476D01*
X120500000Y-80095238D01*
X120452381Y-79952380D01*
X120452381Y-79857142D01*
X120500000Y-79714285D01*
X120547619Y-79666666D01*
X120547619Y-79285714D02*
X120500000Y-79238095D01*
X120452381Y-79142857D01*
X120452381Y-78904761D01*
X120500000Y-78809523D01*
X120547619Y-78761904D01*
X120642857Y-78714285D01*
X120738095Y-78714285D01*
X120880952Y-78761904D01*
X121452381Y-79333333D01*
X121452381Y-78714285D01*
X128857143Y-79666666D02*
X128904762Y-79714285D01*
X128952381Y-79857142D01*
X128952381Y-79952380D01*
X128904762Y-80095238D01*
X128809524Y-80190476D01*
X128714286Y-80238095D01*
X128523810Y-80285714D01*
X128380952Y-80285714D01*
X128190476Y-80238095D01*
X128095238Y-80190476D01*
X128000000Y-80095238D01*
X127952381Y-79952380D01*
X127952381Y-79857142D01*
X128000000Y-79714285D01*
X128047619Y-79666666D01*
X127952381Y-79333333D02*
X127952381Y-78714285D01*
X128333333Y-79047619D01*
X128333333Y-78904761D01*
X128380952Y-78809523D01*
X128428571Y-78761904D01*
X128523810Y-78714285D01*
X128761905Y-78714285D01*
X128857143Y-78761904D01*
X128904762Y-78809523D01*
X128952381Y-78904761D01*
X128952381Y-79190476D01*
X128904762Y-79285714D01*
X128857143Y-79333333D01*
D15*
X125525000Y-97558333D02*
X125541667Y-97574999D01*
X125558333Y-97624999D01*
X125558333Y-97658333D01*
X125541667Y-97708333D01*
X125508333Y-97741666D01*
X125475000Y-97758333D01*
X125408333Y-97774999D01*
X125358333Y-97774999D01*
X125291667Y-97758333D01*
X125258333Y-97741666D01*
X125225000Y-97708333D01*
X125208333Y-97658333D01*
X125208333Y-97624999D01*
X125225000Y-97574999D01*
X125241667Y-97558333D01*
X125325000Y-97258333D02*
X125558333Y-97258333D01*
X125191667Y-97341666D02*
X125441667Y-97424999D01*
X125441667Y-97208333D01*
X121525000Y-97558333D02*
X121541667Y-97574999D01*
X121558333Y-97624999D01*
X121558333Y-97658333D01*
X121541667Y-97708333D01*
X121508333Y-97741666D01*
X121475000Y-97758333D01*
X121408333Y-97774999D01*
X121358333Y-97774999D01*
X121291667Y-97758333D01*
X121258333Y-97741666D01*
X121225000Y-97708333D01*
X121208333Y-97658333D01*
X121208333Y-97624999D01*
X121225000Y-97574999D01*
X121241667Y-97558333D01*
X121208333Y-97241666D02*
X121208333Y-97408333D01*
X121375000Y-97424999D01*
X121358333Y-97408333D01*
X121341667Y-97374999D01*
X121341667Y-97291666D01*
X121358333Y-97258333D01*
X121375000Y-97241666D01*
X121408333Y-97224999D01*
X121491667Y-97224999D01*
X121525000Y-97241666D01*
X121541667Y-97258333D01*
X121558333Y-97291666D01*
X121558333Y-97374999D01*
X121541667Y-97408333D01*
X121525000Y-97424999D01*
X119725000Y-86158333D02*
X119741667Y-86174999D01*
X119758333Y-86224999D01*
X119758333Y-86258333D01*
X119741667Y-86308333D01*
X119708333Y-86341666D01*
X119675000Y-86358333D01*
X119608333Y-86374999D01*
X119558333Y-86374999D01*
X119491667Y-86358333D01*
X119458333Y-86341666D01*
X119425000Y-86308333D01*
X119408333Y-86258333D01*
X119408333Y-86224999D01*
X119425000Y-86174999D01*
X119441667Y-86158333D01*
X119408333Y-86041666D02*
X119408333Y-85808333D01*
X119758333Y-85958333D01*
X122525000Y-86158333D02*
X122541667Y-86174999D01*
X122558333Y-86224999D01*
X122558333Y-86258333D01*
X122541667Y-86308333D01*
X122508333Y-86341666D01*
X122475000Y-86358333D01*
X122408333Y-86374999D01*
X122358333Y-86374999D01*
X122291667Y-86358333D01*
X122258333Y-86341666D01*
X122225000Y-86308333D01*
X122208333Y-86258333D01*
X122208333Y-86224999D01*
X122225000Y-86174999D01*
X122241667Y-86158333D01*
X122358333Y-85958333D02*
X122341667Y-85991666D01*
X122325000Y-86008333D01*
X122291667Y-86024999D01*
X122275000Y-86024999D01*
X122241667Y-86008333D01*
X122225000Y-85991666D01*
X122208333Y-85958333D01*
X122208333Y-85891666D01*
X122225000Y-85858333D01*
X122241667Y-85841666D01*
X122275000Y-85824999D01*
X122291667Y-85824999D01*
X122325000Y-85841666D01*
X122341667Y-85858333D01*
X122358333Y-85891666D01*
X122358333Y-85958333D01*
X122375000Y-85991666D01*
X122391667Y-86008333D01*
X122425000Y-86024999D01*
X122491667Y-86024999D01*
X122525000Y-86008333D01*
X122541667Y-85991666D01*
X122558333Y-85958333D01*
X122558333Y-85891666D01*
X122541667Y-85858333D01*
X122525000Y-85841666D01*
X122491667Y-85824999D01*
X122425000Y-85824999D01*
X122391667Y-85841666D01*
X122375000Y-85858333D01*
X122358333Y-85891666D01*
D13*
X123357143Y-109357143D02*
X123309524Y-109404762D01*
X123166667Y-109452381D01*
X123071429Y-109452381D01*
X122928571Y-109404762D01*
X122833333Y-109309524D01*
X122785714Y-109214286D01*
X122738095Y-109023810D01*
X122738095Y-108880952D01*
X122785714Y-108690476D01*
X122833333Y-108595238D01*
X122928571Y-108500000D01*
X123071429Y-108452381D01*
X123166667Y-108452381D01*
X123309524Y-108500000D01*
X123357143Y-108547619D01*
X124309524Y-109452381D02*
X123738095Y-109452381D01*
X124023809Y-109452381D02*
X124023809Y-108452381D01*
X123928571Y-108595238D01*
X123833333Y-108690476D01*
X123738095Y-108738095D01*
X124642857Y-108452381D02*
X125261905Y-108452381D01*
X124928571Y-108833333D01*
X125071429Y-108833333D01*
X125166667Y-108880952D01*
X125214286Y-108928571D01*
X125261905Y-109023810D01*
X125261905Y-109261905D01*
X125214286Y-109357143D01*
X125166667Y-109404762D01*
X125071429Y-109452381D01*
X124785714Y-109452381D01*
X124690476Y-109404762D01*
X124642857Y-109357143D01*
X118829048Y-109981429D02*
X119590953Y-109981429D01*
X119210001Y-110362381D02*
X119210001Y-109600476D01*
X111857143Y-111857143D02*
X111809524Y-111904762D01*
X111666667Y-111952381D01*
X111571429Y-111952381D01*
X111428571Y-111904762D01*
X111333333Y-111809524D01*
X111285714Y-111714286D01*
X111238095Y-111523810D01*
X111238095Y-111380952D01*
X111285714Y-111190476D01*
X111333333Y-111095238D01*
X111428571Y-111000000D01*
X111571429Y-110952381D01*
X111666667Y-110952381D01*
X111809524Y-111000000D01*
X111857143Y-111047619D01*
X112809524Y-111952381D02*
X112238095Y-111952381D01*
X112523809Y-111952381D02*
X112523809Y-110952381D01*
X112428571Y-111095238D01*
X112333333Y-111190476D01*
X112238095Y-111238095D01*
X113666667Y-111285714D02*
X113666667Y-111952381D01*
X113428571Y-110904762D02*
X113190476Y-111619048D01*
X113809524Y-111619048D01*
X116909048Y-111161429D02*
X117670953Y-111161429D01*
X117290001Y-111542381D02*
X117290001Y-110780476D01*
X111857143Y-102857143D02*
X111809524Y-102904762D01*
X111666667Y-102952381D01*
X111571429Y-102952381D01*
X111428571Y-102904762D01*
X111333333Y-102809524D01*
X111285714Y-102714286D01*
X111238095Y-102523810D01*
X111238095Y-102380952D01*
X111285714Y-102190476D01*
X111333333Y-102095238D01*
X111428571Y-102000000D01*
X111571429Y-101952381D01*
X111666667Y-101952381D01*
X111809524Y-102000000D01*
X111857143Y-102047619D01*
X112809524Y-102952381D02*
X112238095Y-102952381D01*
X112523809Y-102952381D02*
X112523809Y-101952381D01*
X112428571Y-102095238D01*
X112333333Y-102190476D01*
X112238095Y-102238095D01*
X113285714Y-102952381D02*
X113476190Y-102952381D01*
X113571429Y-102904762D01*
X113619048Y-102857143D01*
X113714286Y-102714286D01*
X113761905Y-102523810D01*
X113761905Y-102142857D01*
X113714286Y-102047619D01*
X113666667Y-102000000D01*
X113571429Y-101952381D01*
X113380952Y-101952381D01*
X113285714Y-102000000D01*
X113238095Y-102047619D01*
X113190476Y-102142857D01*
X113190476Y-102380952D01*
X113238095Y-102476190D01*
X113285714Y-102523810D01*
X113380952Y-102571429D01*
X113571429Y-102571429D01*
X113666667Y-102523810D01*
X113714286Y-102476190D01*
X113761905Y-102380952D01*
X116909048Y-102161429D02*
X117670953Y-102161429D01*
X117290001Y-102542381D02*
X117290001Y-101780476D01*
X123357143Y-118357143D02*
X123309524Y-118404762D01*
X123166667Y-118452381D01*
X123071429Y-118452381D01*
X122928571Y-118404762D01*
X122833333Y-118309524D01*
X122785714Y-118214286D01*
X122738095Y-118023810D01*
X122738095Y-117880952D01*
X122785714Y-117690476D01*
X122833333Y-117595238D01*
X122928571Y-117500000D01*
X123071429Y-117452381D01*
X123166667Y-117452381D01*
X123309524Y-117500000D01*
X123357143Y-117547619D01*
X123738095Y-117547619D02*
X123785714Y-117500000D01*
X123880952Y-117452381D01*
X124119048Y-117452381D01*
X124214286Y-117500000D01*
X124261905Y-117547619D01*
X124309524Y-117642857D01*
X124309524Y-117738095D01*
X124261905Y-117880952D01*
X123690476Y-118452381D01*
X124309524Y-118452381D01*
X124928571Y-117452381D02*
X125023810Y-117452381D01*
X125119048Y-117500000D01*
X125166667Y-117547619D01*
X125214286Y-117642857D01*
X125261905Y-117833333D01*
X125261905Y-118071429D01*
X125214286Y-118261905D01*
X125166667Y-118357143D01*
X125119048Y-118404762D01*
X125023810Y-118452381D01*
X124928571Y-118452381D01*
X124833333Y-118404762D01*
X124785714Y-118357143D01*
X124738095Y-118261905D01*
X124690476Y-118071429D01*
X124690476Y-117833333D01*
X124738095Y-117642857D01*
X124785714Y-117547619D01*
X124833333Y-117500000D01*
X124928571Y-117452381D01*
X118829048Y-118981429D02*
X119590953Y-118981429D01*
X119210001Y-119362381D02*
X119210001Y-118600476D01*
X100761905Y-114452381D02*
X100761905Y-113452381D01*
X101142858Y-113452381D01*
X101238096Y-113500000D01*
X101285715Y-113547619D01*
X101333334Y-113642857D01*
X101333334Y-113785714D01*
X101285715Y-113880952D01*
X101238096Y-113928571D01*
X101142858Y-113976190D01*
X100761905Y-113976190D01*
X101666667Y-113452381D02*
X102285715Y-113452381D01*
X101952381Y-113833333D01*
X102095239Y-113833333D01*
X102190477Y-113880952D01*
X102238096Y-113928571D01*
X102285715Y-114023810D01*
X102285715Y-114261905D01*
X102238096Y-114357143D01*
X102190477Y-114404762D01*
X102095239Y-114452381D01*
X101809524Y-114452381D01*
X101714286Y-114404762D01*
X101666667Y-114357143D01*
X123952381Y-82166666D02*
X123476190Y-82500000D01*
X123952381Y-82738095D02*
X122952381Y-82738095D01*
X122952381Y-82357142D01*
X123000000Y-82261904D01*
X123047619Y-82214285D01*
X123142857Y-82166666D01*
X123285714Y-82166666D01*
X123380952Y-82214285D01*
X123428571Y-82261904D01*
X123476190Y-82357142D01*
X123476190Y-82738095D01*
X122952381Y-81833333D02*
X122952381Y-81166666D01*
X123952381Y-81595238D01*
X126452381Y-82166666D02*
X125976190Y-82500000D01*
X126452381Y-82738095D02*
X125452381Y-82738095D01*
X125452381Y-82357142D01*
X125500000Y-82261904D01*
X125547619Y-82214285D01*
X125642857Y-82166666D01*
X125785714Y-82166666D01*
X125880952Y-82214285D01*
X125928571Y-82261904D01*
X125976190Y-82357142D01*
X125976190Y-82738095D01*
X125880952Y-81595238D02*
X125833333Y-81690476D01*
X125785714Y-81738095D01*
X125690476Y-81785714D01*
X125642857Y-81785714D01*
X125547619Y-81738095D01*
X125500000Y-81690476D01*
X125452381Y-81595238D01*
X125452381Y-81404761D01*
X125500000Y-81309523D01*
X125547619Y-81261904D01*
X125642857Y-81214285D01*
X125690476Y-81214285D01*
X125785714Y-81261904D01*
X125833333Y-81309523D01*
X125880952Y-81404761D01*
X125880952Y-81595238D01*
X125928571Y-81690476D01*
X125976190Y-81738095D01*
X126071429Y-81785714D01*
X126261905Y-81785714D01*
X126357143Y-81738095D01*
X126404762Y-81690476D01*
X126452381Y-81595238D01*
X126452381Y-81404761D01*
X126404762Y-81309523D01*
X126357143Y-81261904D01*
X126261905Y-81214285D01*
X126071429Y-81214285D01*
X125976190Y-81261904D01*
X125928571Y-81309523D01*
X125880952Y-81404761D01*
X122238095Y-90717381D02*
X122238095Y-91526905D01*
X122285714Y-91622143D01*
X122333333Y-91669762D01*
X122428571Y-91717381D01*
X122619048Y-91717381D01*
X122714286Y-91669762D01*
X122761905Y-91622143D01*
X122809524Y-91526905D01*
X122809524Y-90717381D01*
X123809524Y-91717381D02*
X123238095Y-91717381D01*
X123523809Y-91717381D02*
X123523809Y-90717381D01*
X123428571Y-90860238D01*
X123333333Y-90955476D01*
X123238095Y-91003095D01*
X107904762Y-87833333D02*
X107952381Y-87690476D01*
X107952381Y-87452380D01*
X107904762Y-87357142D01*
X107857143Y-87309523D01*
X107761905Y-87261904D01*
X107666667Y-87261904D01*
X107571429Y-87309523D01*
X107523810Y-87357142D01*
X107476190Y-87452380D01*
X107428571Y-87642857D01*
X107380952Y-87738095D01*
X107333333Y-87785714D01*
X107238095Y-87833333D01*
X107142857Y-87833333D01*
X107047619Y-87785714D01*
X107000000Y-87738095D01*
X106952381Y-87642857D01*
X106952381Y-87404761D01*
X107000000Y-87261904D01*
X106952381Y-86928571D02*
X107952381Y-86690476D01*
X107238095Y-86499999D01*
X107952381Y-86309523D01*
X106952381Y-86071428D01*
X107952381Y-85166666D02*
X107952381Y-85738095D01*
X107952381Y-85452381D02*
X106952381Y-85452381D01*
X107095238Y-85547619D01*
X107190476Y-85642857D01*
X107238095Y-85738095D01*
X115904762Y-87833333D02*
X115952381Y-87690476D01*
X115952381Y-87452380D01*
X115904762Y-87357142D01*
X115857143Y-87309523D01*
X115761905Y-87261904D01*
X115666667Y-87261904D01*
X115571429Y-87309523D01*
X115523810Y-87357142D01*
X115476190Y-87452380D01*
X115428571Y-87642857D01*
X115380952Y-87738095D01*
X115333333Y-87785714D01*
X115238095Y-87833333D01*
X115142857Y-87833333D01*
X115047619Y-87785714D01*
X115000000Y-87738095D01*
X114952381Y-87642857D01*
X114952381Y-87404761D01*
X115000000Y-87261904D01*
X114952381Y-86928571D02*
X115952381Y-86690476D01*
X115238095Y-86499999D01*
X115952381Y-86309523D01*
X114952381Y-86071428D01*
X115047619Y-85738095D02*
X115000000Y-85690476D01*
X114952381Y-85595238D01*
X114952381Y-85357142D01*
X115000000Y-85261904D01*
X115047619Y-85214285D01*
X115142857Y-85166666D01*
X115238095Y-85166666D01*
X115380952Y-85214285D01*
X115952381Y-85785714D01*
X115952381Y-85166666D01*
X110666667Y-69074762D02*
X110809524Y-69122381D01*
X111047620Y-69122381D01*
X111142858Y-69074762D01*
X111190477Y-69027143D01*
X111238096Y-68931905D01*
X111238096Y-68836667D01*
X111190477Y-68741429D01*
X111142858Y-68693810D01*
X111047620Y-68646190D01*
X110857143Y-68598571D01*
X110761905Y-68550952D01*
X110714286Y-68503333D01*
X110666667Y-68408095D01*
X110666667Y-68312857D01*
X110714286Y-68217619D01*
X110761905Y-68170000D01*
X110857143Y-68122381D01*
X111095239Y-68122381D01*
X111238096Y-68170000D01*
X111571429Y-68122381D02*
X111809524Y-69122381D01*
X112000001Y-68408095D01*
X112190477Y-69122381D01*
X112428572Y-68122381D01*
X112714286Y-68122381D02*
X113333334Y-68122381D01*
X113000000Y-68503333D01*
X113142858Y-68503333D01*
X113238096Y-68550952D01*
X113285715Y-68598571D01*
X113333334Y-68693810D01*
X113333334Y-68931905D01*
X113285715Y-69027143D01*
X113238096Y-69074762D01*
X113142858Y-69122381D01*
X112857143Y-69122381D01*
X112761905Y-69074762D01*
X112714286Y-69027143D01*
X110666667Y-97074762D02*
X110809524Y-97122381D01*
X111047620Y-97122381D01*
X111142858Y-97074762D01*
X111190477Y-97027143D01*
X111238096Y-96931905D01*
X111238096Y-96836667D01*
X111190477Y-96741429D01*
X111142858Y-96693810D01*
X111047620Y-96646190D01*
X110857143Y-96598571D01*
X110761905Y-96550952D01*
X110714286Y-96503333D01*
X110666667Y-96408095D01*
X110666667Y-96312857D01*
X110714286Y-96217619D01*
X110761905Y-96170000D01*
X110857143Y-96122381D01*
X111095239Y-96122381D01*
X111238096Y-96170000D01*
X111571429Y-96122381D02*
X111809524Y-97122381D01*
X112000001Y-96408095D01*
X112190477Y-97122381D01*
X112428572Y-96122381D01*
X113285715Y-96122381D02*
X112809524Y-96122381D01*
X112761905Y-96598571D01*
X112809524Y-96550952D01*
X112904762Y-96503333D01*
X113142858Y-96503333D01*
X113238096Y-96550952D01*
X113285715Y-96598571D01*
X113333334Y-96693810D01*
X113333334Y-96931905D01*
X113285715Y-97027143D01*
X113238096Y-97074762D01*
X113142858Y-97122381D01*
X112904762Y-97122381D01*
X112809524Y-97074762D01*
X112761905Y-97027143D01*
X110666667Y-92074762D02*
X110809524Y-92122381D01*
X111047620Y-92122381D01*
X111142858Y-92074762D01*
X111190477Y-92027143D01*
X111238096Y-91931905D01*
X111238096Y-91836667D01*
X111190477Y-91741429D01*
X111142858Y-91693810D01*
X111047620Y-91646190D01*
X110857143Y-91598571D01*
X110761905Y-91550952D01*
X110714286Y-91503333D01*
X110666667Y-91408095D01*
X110666667Y-91312857D01*
X110714286Y-91217619D01*
X110761905Y-91170000D01*
X110857143Y-91122381D01*
X111095239Y-91122381D01*
X111238096Y-91170000D01*
X111571429Y-91122381D02*
X111809524Y-92122381D01*
X112000001Y-91408095D01*
X112190477Y-92122381D01*
X112428572Y-91122381D01*
X113238096Y-91122381D02*
X113047619Y-91122381D01*
X112952381Y-91170000D01*
X112904762Y-91217619D01*
X112809524Y-91360476D01*
X112761905Y-91550952D01*
X112761905Y-91931905D01*
X112809524Y-92027143D01*
X112857143Y-92074762D01*
X112952381Y-92122381D01*
X113142858Y-92122381D01*
X113238096Y-92074762D01*
X113285715Y-92027143D01*
X113333334Y-91931905D01*
X113333334Y-91693810D01*
X113285715Y-91598571D01*
X113238096Y-91550952D01*
X113142858Y-91503333D01*
X112952381Y-91503333D01*
X112857143Y-91550952D01*
X112809524Y-91598571D01*
X112761905Y-91693810D01*
M02*
