G04 #@! TF.FileFunction,Legend,Bot*
%FSLAX46Y46*%
G04 Gerber Fmt 4.6, Leading zero omitted, Abs format (unit mm)*
G04 Created by KiCad (PCBNEW 4.0.7) date 05/16/18 21:08:28*
%MOMM*%
%LPD*%
G01*
G04 APERTURE LIST*
%ADD10C,0.100000*%
%ADD11C,0.300000*%
%ADD12C,0.075000*%
%ADD13C,0.120000*%
%ADD14C,0.150000*%
%ADD15C,0.050000*%
G04 APERTURE END LIST*
D10*
D11*
X125453571Y-89785714D02*
X123953571Y-89785714D01*
X123953571Y-90142857D01*
X124025000Y-90357142D01*
X124167857Y-90500000D01*
X124310714Y-90571428D01*
X124596429Y-90642857D01*
X124810714Y-90642857D01*
X125096429Y-90571428D01*
X125239286Y-90500000D01*
X125382143Y-90357142D01*
X125453571Y-90142857D01*
X125453571Y-89785714D01*
X125382143Y-91857142D02*
X125453571Y-91714285D01*
X125453571Y-91428571D01*
X125382143Y-91285714D01*
X125239286Y-91214285D01*
X124667857Y-91214285D01*
X124525000Y-91285714D01*
X124453571Y-91428571D01*
X124453571Y-91714285D01*
X124525000Y-91857142D01*
X124667857Y-91928571D01*
X124810714Y-91928571D01*
X124953571Y-91214285D01*
X125382143Y-92499999D02*
X125453571Y-92642856D01*
X125453571Y-92928571D01*
X125382143Y-93071428D01*
X125239286Y-93142856D01*
X125167857Y-93142856D01*
X125025000Y-93071428D01*
X124953571Y-92928571D01*
X124953571Y-92714285D01*
X124882143Y-92571428D01*
X124739286Y-92499999D01*
X124667857Y-92499999D01*
X124525000Y-92571428D01*
X124453571Y-92714285D01*
X124453571Y-92928571D01*
X124525000Y-93071428D01*
X125453571Y-93785714D02*
X124453571Y-93785714D01*
X123953571Y-93785714D02*
X124025000Y-93714285D01*
X124096429Y-93785714D01*
X124025000Y-93857142D01*
X123953571Y-93785714D01*
X124096429Y-93785714D01*
X124453571Y-95142857D02*
X125667857Y-95142857D01*
X125810714Y-95071428D01*
X125882143Y-95000000D01*
X125953571Y-94857143D01*
X125953571Y-94642857D01*
X125882143Y-94500000D01*
X125382143Y-95142857D02*
X125453571Y-95000000D01*
X125453571Y-94714286D01*
X125382143Y-94571428D01*
X125310714Y-94500000D01*
X125167857Y-94428571D01*
X124739286Y-94428571D01*
X124596429Y-94500000D01*
X124525000Y-94571428D01*
X124453571Y-94714286D01*
X124453571Y-95000000D01*
X124525000Y-95142857D01*
X124453571Y-95857143D02*
X125453571Y-95857143D01*
X124596429Y-95857143D02*
X124525000Y-95928571D01*
X124453571Y-96071429D01*
X124453571Y-96285714D01*
X124525000Y-96428571D01*
X124667857Y-96500000D01*
X125453571Y-96500000D01*
X125382143Y-97785714D02*
X125453571Y-97642857D01*
X125453571Y-97357143D01*
X125382143Y-97214286D01*
X125239286Y-97142857D01*
X124667857Y-97142857D01*
X124525000Y-97214286D01*
X124453571Y-97357143D01*
X124453571Y-97642857D01*
X124525000Y-97785714D01*
X124667857Y-97857143D01*
X124810714Y-97857143D01*
X124953571Y-97142857D01*
X125453571Y-99142857D02*
X123953571Y-99142857D01*
X125382143Y-99142857D02*
X125453571Y-99000000D01*
X125453571Y-98714286D01*
X125382143Y-98571428D01*
X125310714Y-98500000D01*
X125167857Y-98428571D01*
X124739286Y-98428571D01*
X124596429Y-98500000D01*
X124525000Y-98571428D01*
X124453571Y-98714286D01*
X124453571Y-99000000D01*
X124525000Y-99142857D01*
X125453571Y-101000000D02*
X123953571Y-101000000D01*
X124525000Y-101000000D02*
X124453571Y-101142857D01*
X124453571Y-101428571D01*
X124525000Y-101571428D01*
X124596429Y-101642857D01*
X124739286Y-101714286D01*
X125167857Y-101714286D01*
X125310714Y-101642857D01*
X125382143Y-101571428D01*
X125453571Y-101428571D01*
X125453571Y-101142857D01*
X125382143Y-101000000D01*
X124453571Y-102214286D02*
X125453571Y-102571429D01*
X124453571Y-102928571D02*
X125453571Y-102571429D01*
X125810714Y-102428571D01*
X125882143Y-102357143D01*
X125953571Y-102214286D01*
X124739286Y-104928571D02*
X125453571Y-104928571D01*
X123953571Y-104428571D02*
X124739286Y-104928571D01*
X123953571Y-105428571D01*
X125453571Y-106571428D02*
X124667857Y-106571428D01*
X124525000Y-106499999D01*
X124453571Y-106357142D01*
X124453571Y-106071428D01*
X124525000Y-105928571D01*
X125382143Y-106571428D02*
X125453571Y-106428571D01*
X125453571Y-106071428D01*
X125382143Y-105928571D01*
X125239286Y-105857142D01*
X125096429Y-105857142D01*
X124953571Y-105928571D01*
X124882143Y-106071428D01*
X124882143Y-106428571D01*
X124810714Y-106571428D01*
X125453571Y-107285714D02*
X124453571Y-107285714D01*
X124596429Y-107285714D02*
X124525000Y-107357142D01*
X124453571Y-107500000D01*
X124453571Y-107714285D01*
X124525000Y-107857142D01*
X124667857Y-107928571D01*
X125453571Y-107928571D01*
X124667857Y-107928571D02*
X124525000Y-108000000D01*
X124453571Y-108142857D01*
X124453571Y-108357142D01*
X124525000Y-108500000D01*
X124667857Y-108571428D01*
X125453571Y-108571428D01*
X125453571Y-109928571D02*
X124667857Y-109928571D01*
X124525000Y-109857142D01*
X124453571Y-109714285D01*
X124453571Y-109428571D01*
X124525000Y-109285714D01*
X125382143Y-109928571D02*
X125453571Y-109785714D01*
X125453571Y-109428571D01*
X125382143Y-109285714D01*
X125239286Y-109214285D01*
X125096429Y-109214285D01*
X124953571Y-109285714D01*
X124882143Y-109428571D01*
X124882143Y-109785714D01*
X124810714Y-109928571D01*
X125453571Y-110642857D02*
X124453571Y-110642857D01*
X124596429Y-110642857D02*
X124525000Y-110714285D01*
X124453571Y-110857143D01*
X124453571Y-111071428D01*
X124525000Y-111214285D01*
X124667857Y-111285714D01*
X125453571Y-111285714D01*
X124667857Y-111285714D02*
X124525000Y-111357143D01*
X124453571Y-111500000D01*
X124453571Y-111714285D01*
X124525000Y-111857143D01*
X124667857Y-111928571D01*
X125453571Y-111928571D01*
X125453571Y-112857143D02*
X125382143Y-112714285D01*
X125310714Y-112642857D01*
X125167857Y-112571428D01*
X124739286Y-112571428D01*
X124596429Y-112642857D01*
X124525000Y-112714285D01*
X124453571Y-112857143D01*
X124453571Y-113071428D01*
X124525000Y-113214285D01*
X124596429Y-113285714D01*
X124739286Y-113357143D01*
X125167857Y-113357143D01*
X125310714Y-113285714D01*
X125382143Y-113214285D01*
X125453571Y-113071428D01*
X125453571Y-112857143D01*
X124453571Y-113785714D02*
X124453571Y-114357143D01*
X123953571Y-114000000D02*
X125239286Y-114000000D01*
X125382143Y-114071428D01*
X125453571Y-114214286D01*
X125453571Y-114357143D01*
X125382143Y-114785714D02*
X125453571Y-114928571D01*
X125453571Y-115214286D01*
X125382143Y-115357143D01*
X125239286Y-115428571D01*
X125167857Y-115428571D01*
X125025000Y-115357143D01*
X124953571Y-115214286D01*
X124953571Y-115000000D01*
X124882143Y-114857143D01*
X124739286Y-114785714D01*
X124667857Y-114785714D01*
X124525000Y-114857143D01*
X124453571Y-115000000D01*
X124453571Y-115214286D01*
X124525000Y-115357143D01*
X124453571Y-116714286D02*
X125453571Y-116714286D01*
X124453571Y-116071429D02*
X125239286Y-116071429D01*
X125382143Y-116142857D01*
X125453571Y-116285715D01*
X125453571Y-116500000D01*
X125382143Y-116642857D01*
X125310714Y-116714286D01*
X128003571Y-88999997D02*
X126503571Y-88999997D01*
X128003571Y-89642854D02*
X127217857Y-89642854D01*
X127075000Y-89571425D01*
X127003571Y-89428568D01*
X127003571Y-89214283D01*
X127075000Y-89071425D01*
X127146429Y-88999997D01*
X127003571Y-90142854D02*
X127003571Y-90714283D01*
X126503571Y-90357140D02*
X127789286Y-90357140D01*
X127932143Y-90428568D01*
X128003571Y-90571426D01*
X128003571Y-90714283D01*
X127003571Y-90999997D02*
X127003571Y-91571426D01*
X126503571Y-91214283D02*
X127789286Y-91214283D01*
X127932143Y-91285711D01*
X128003571Y-91428569D01*
X128003571Y-91571426D01*
X127003571Y-92071426D02*
X128503571Y-92071426D01*
X127075000Y-92071426D02*
X127003571Y-92214283D01*
X127003571Y-92499997D01*
X127075000Y-92642854D01*
X127146429Y-92714283D01*
X127289286Y-92785712D01*
X127717857Y-92785712D01*
X127860714Y-92714283D01*
X127932143Y-92642854D01*
X128003571Y-92499997D01*
X128003571Y-92214283D01*
X127932143Y-92071426D01*
X127860714Y-93428569D02*
X127932143Y-93499997D01*
X128003571Y-93428569D01*
X127932143Y-93357140D01*
X127860714Y-93428569D01*
X128003571Y-93428569D01*
X127075000Y-93428569D02*
X127146429Y-93499997D01*
X127217857Y-93428569D01*
X127146429Y-93357140D01*
X127075000Y-93428569D01*
X127217857Y-93428569D01*
X126432143Y-95214283D02*
X128360714Y-93928569D01*
X126432143Y-96785712D02*
X128360714Y-95499998D01*
X127003571Y-97142856D02*
X128003571Y-97428570D01*
X127289286Y-97714284D01*
X128003571Y-97999999D01*
X127003571Y-98285713D01*
X127003571Y-98714285D02*
X128003571Y-98999999D01*
X127289286Y-99285713D01*
X128003571Y-99571428D01*
X127003571Y-99857142D01*
X127003571Y-100285714D02*
X128003571Y-100571428D01*
X127289286Y-100857142D01*
X128003571Y-101142857D01*
X127003571Y-101428571D01*
X127860714Y-102000000D02*
X127932143Y-102071428D01*
X128003571Y-102000000D01*
X127932143Y-101928571D01*
X127860714Y-102000000D01*
X128003571Y-102000000D01*
X128003571Y-102714286D02*
X127003571Y-102714286D01*
X127146429Y-102714286D02*
X127075000Y-102785714D01*
X127003571Y-102928572D01*
X127003571Y-103142857D01*
X127075000Y-103285714D01*
X127217857Y-103357143D01*
X128003571Y-103357143D01*
X127217857Y-103357143D02*
X127075000Y-103428572D01*
X127003571Y-103571429D01*
X127003571Y-103785714D01*
X127075000Y-103928572D01*
X127217857Y-104000000D01*
X128003571Y-104000000D01*
X128003571Y-104928572D02*
X127932143Y-104785714D01*
X127860714Y-104714286D01*
X127717857Y-104642857D01*
X127289286Y-104642857D01*
X127146429Y-104714286D01*
X127075000Y-104785714D01*
X127003571Y-104928572D01*
X127003571Y-105142857D01*
X127075000Y-105285714D01*
X127146429Y-105357143D01*
X127289286Y-105428572D01*
X127717857Y-105428572D01*
X127860714Y-105357143D01*
X127932143Y-105285714D01*
X128003571Y-105142857D01*
X128003571Y-104928572D01*
X127003571Y-105857143D02*
X127003571Y-106428572D01*
X126503571Y-106071429D02*
X127789286Y-106071429D01*
X127932143Y-106142857D01*
X128003571Y-106285715D01*
X128003571Y-106428572D01*
X127932143Y-106857143D02*
X128003571Y-107000000D01*
X128003571Y-107285715D01*
X127932143Y-107428572D01*
X127789286Y-107500000D01*
X127717857Y-107500000D01*
X127575000Y-107428572D01*
X127503571Y-107285715D01*
X127503571Y-107071429D01*
X127432143Y-106928572D01*
X127289286Y-106857143D01*
X127217857Y-106857143D01*
X127075000Y-106928572D01*
X127003571Y-107071429D01*
X127003571Y-107285715D01*
X127075000Y-107428572D01*
X127003571Y-108785715D02*
X128003571Y-108785715D01*
X127003571Y-108142858D02*
X127789286Y-108142858D01*
X127932143Y-108214286D01*
X128003571Y-108357144D01*
X128003571Y-108571429D01*
X127932143Y-108714286D01*
X127860714Y-108785715D01*
X127860714Y-109500001D02*
X127932143Y-109571429D01*
X128003571Y-109500001D01*
X127932143Y-109428572D01*
X127860714Y-109500001D01*
X128003571Y-109500001D01*
X127003571Y-110071430D02*
X128003571Y-110357144D01*
X127289286Y-110642858D01*
X128003571Y-110928573D01*
X127003571Y-111214287D01*
X127003571Y-111785716D02*
X128289286Y-111785716D01*
X128432143Y-111714287D01*
X128503571Y-111571430D01*
X128503571Y-111500002D01*
X126503571Y-111785716D02*
X126575000Y-111714287D01*
X126646429Y-111785716D01*
X126575000Y-111857144D01*
X126503571Y-111785716D01*
X126646429Y-111785716D01*
X127003571Y-113142859D02*
X128217857Y-113142859D01*
X128360714Y-113071430D01*
X128432143Y-113000002D01*
X128503571Y-112857145D01*
X128503571Y-112642859D01*
X128432143Y-112500002D01*
X127932143Y-113142859D02*
X128003571Y-113000002D01*
X128003571Y-112714288D01*
X127932143Y-112571430D01*
X127860714Y-112500002D01*
X127717857Y-112428573D01*
X127289286Y-112428573D01*
X127146429Y-112500002D01*
X127075000Y-112571430D01*
X127003571Y-112714288D01*
X127003571Y-113000002D01*
X127075000Y-113142859D01*
X127860714Y-113857145D02*
X127932143Y-113928573D01*
X128003571Y-113857145D01*
X127932143Y-113785716D01*
X127860714Y-113857145D01*
X128003571Y-113857145D01*
X127003571Y-114571431D02*
X128289286Y-114571431D01*
X128432143Y-114500002D01*
X128503571Y-114357145D01*
X128503571Y-114285717D01*
X126503571Y-114571431D02*
X126575000Y-114500002D01*
X126646429Y-114571431D01*
X126575000Y-114642859D01*
X126503571Y-114571431D01*
X126646429Y-114571431D01*
X127003571Y-115285717D02*
X128503571Y-115285717D01*
X127075000Y-115285717D02*
X127003571Y-115428574D01*
X127003571Y-115714288D01*
X127075000Y-115857145D01*
X127146429Y-115928574D01*
X127289286Y-116000003D01*
X127717857Y-116000003D01*
X127860714Y-115928574D01*
X127932143Y-115857145D01*
X128003571Y-115714288D01*
X128003571Y-115428574D01*
X127932143Y-115285717D01*
X126432143Y-117714288D02*
X128360714Y-116428574D01*
D12*
X122500000Y-92900000D02*
X122500000Y-93300000D01*
X122500000Y-93300000D02*
X120900000Y-93300000D01*
X120900000Y-93300000D02*
X120900000Y-92500000D01*
X120900000Y-92500000D02*
X122500000Y-92500000D01*
X122500000Y-92500000D02*
X122500000Y-92900000D01*
X127300000Y-109500000D02*
X127300000Y-109900000D01*
X127300000Y-109900000D02*
X125700000Y-109900000D01*
X125700000Y-109900000D02*
X125700000Y-109100000D01*
X125700000Y-109100000D02*
X127300000Y-109100000D01*
X127300000Y-109100000D02*
X127300000Y-109500000D01*
X108200000Y-111500000D02*
X108200000Y-111100000D01*
X108200000Y-111100000D02*
X109800000Y-111100000D01*
X109800000Y-111100000D02*
X109800000Y-111900000D01*
X109800000Y-111900000D02*
X108200000Y-111900000D01*
X108200000Y-111900000D02*
X108200000Y-111500000D01*
X108200000Y-109500000D02*
X108200000Y-109100000D01*
X108200000Y-109100000D02*
X109800000Y-109100000D01*
X109800000Y-109100000D02*
X109800000Y-109900000D01*
X109800000Y-109900000D02*
X108200000Y-109900000D01*
X108200000Y-109900000D02*
X108200000Y-109500000D01*
X127300000Y-111500000D02*
X127300000Y-111900000D01*
X127300000Y-111900000D02*
X125700000Y-111900000D01*
X125700000Y-111900000D02*
X125700000Y-111100000D01*
X125700000Y-111100000D02*
X127300000Y-111100000D01*
X127300000Y-111100000D02*
X127300000Y-111500000D01*
D13*
X113100000Y-108890000D02*
X114900000Y-108890000D01*
X114900000Y-112110000D02*
X112450000Y-112110000D01*
X122400000Y-112110000D02*
X120600000Y-112110000D01*
X120600000Y-108890000D02*
X123050000Y-108890000D01*
D14*
X124650000Y-66500000D02*
G75*
G03X124650000Y-66500000I-700000J0D01*
G01*
X119650000Y-71500000D02*
G75*
G03X119650000Y-71500000I-700000J0D01*
G01*
X129650000Y-71500000D02*
G75*
G03X129650000Y-71500000I-700000J0D01*
G01*
X129650000Y-61500000D02*
G75*
G03X129650000Y-61500000I-700000J0D01*
G01*
X119650000Y-61500000D02*
G75*
G03X119650000Y-61500000I-700000J0D01*
G01*
X126950000Y-58500000D02*
X126950000Y-55000000D01*
X126950000Y-55000000D02*
X120950000Y-55000000D01*
X120950000Y-55000000D02*
X120950000Y-58500000D01*
X129950000Y-58500000D02*
X117950000Y-58500000D01*
X117950000Y-58500000D02*
X117950000Y-76000000D01*
X117950000Y-76000000D02*
X129950000Y-76000000D01*
X129950000Y-76000000D02*
X129950000Y-58500000D01*
D15*
X121758333Y-93725000D02*
X121774999Y-93741667D01*
X121824999Y-93758333D01*
X121858333Y-93758333D01*
X121908333Y-93741667D01*
X121941666Y-93708333D01*
X121958333Y-93675000D01*
X121974999Y-93608333D01*
X121974999Y-93558333D01*
X121958333Y-93491667D01*
X121941666Y-93458333D01*
X121908333Y-93425000D01*
X121858333Y-93408333D01*
X121824999Y-93408333D01*
X121774999Y-93425000D01*
X121758333Y-93441667D01*
X121458333Y-93408333D02*
X121524999Y-93408333D01*
X121558333Y-93425000D01*
X121574999Y-93441667D01*
X121608333Y-93491667D01*
X121624999Y-93558333D01*
X121624999Y-93691667D01*
X121608333Y-93725000D01*
X121591666Y-93741667D01*
X121558333Y-93758333D01*
X121491666Y-93758333D01*
X121458333Y-93741667D01*
X121441666Y-93725000D01*
X121424999Y-93691667D01*
X121424999Y-93608333D01*
X121441666Y-93575000D01*
X121458333Y-93558333D01*
X121491666Y-93541667D01*
X121558333Y-93541667D01*
X121591666Y-93558333D01*
X121608333Y-93575000D01*
X121624999Y-93608333D01*
X126725000Y-110325000D02*
X126741666Y-110341667D01*
X126791666Y-110358333D01*
X126825000Y-110358333D01*
X126875000Y-110341667D01*
X126908333Y-110308333D01*
X126925000Y-110275000D01*
X126941666Y-110208333D01*
X126941666Y-110158333D01*
X126925000Y-110091667D01*
X126908333Y-110058333D01*
X126875000Y-110025000D01*
X126825000Y-110008333D01*
X126791666Y-110008333D01*
X126741666Y-110025000D01*
X126725000Y-110041667D01*
X126391666Y-110358333D02*
X126591666Y-110358333D01*
X126491666Y-110358333D02*
X126491666Y-110008333D01*
X126525000Y-110058333D01*
X126558333Y-110091667D01*
X126591666Y-110108333D01*
X126075000Y-110008333D02*
X126241667Y-110008333D01*
X126258333Y-110175000D01*
X126241667Y-110158333D01*
X126208333Y-110141667D01*
X126125000Y-110141667D01*
X126091667Y-110158333D01*
X126075000Y-110175000D01*
X126058333Y-110208333D01*
X126058333Y-110291667D01*
X126075000Y-110325000D01*
X126091667Y-110341667D01*
X126125000Y-110358333D01*
X126208333Y-110358333D01*
X126241667Y-110341667D01*
X126258333Y-110325000D01*
X109225000Y-110925000D02*
X109241666Y-110941667D01*
X109291666Y-110958333D01*
X109325000Y-110958333D01*
X109375000Y-110941667D01*
X109408333Y-110908333D01*
X109425000Y-110875000D01*
X109441666Y-110808333D01*
X109441666Y-110758333D01*
X109425000Y-110691667D01*
X109408333Y-110658333D01*
X109375000Y-110625000D01*
X109325000Y-110608333D01*
X109291666Y-110608333D01*
X109241666Y-110625000D01*
X109225000Y-110641667D01*
X108891666Y-110958333D02*
X109091666Y-110958333D01*
X108991666Y-110958333D02*
X108991666Y-110608333D01*
X109025000Y-110658333D01*
X109058333Y-110691667D01*
X109091666Y-110708333D01*
X108591667Y-110608333D02*
X108658333Y-110608333D01*
X108691667Y-110625000D01*
X108708333Y-110641667D01*
X108741667Y-110691667D01*
X108758333Y-110758333D01*
X108758333Y-110891667D01*
X108741667Y-110925000D01*
X108725000Y-110941667D01*
X108691667Y-110958333D01*
X108625000Y-110958333D01*
X108591667Y-110941667D01*
X108575000Y-110925000D01*
X108558333Y-110891667D01*
X108558333Y-110808333D01*
X108575000Y-110775000D01*
X108591667Y-110758333D01*
X108625000Y-110741667D01*
X108691667Y-110741667D01*
X108725000Y-110758333D01*
X108741667Y-110775000D01*
X108758333Y-110808333D01*
X109225000Y-108925000D02*
X109241666Y-108941667D01*
X109291666Y-108958333D01*
X109325000Y-108958333D01*
X109375000Y-108941667D01*
X109408333Y-108908333D01*
X109425000Y-108875000D01*
X109441666Y-108808333D01*
X109441666Y-108758333D01*
X109425000Y-108691667D01*
X109408333Y-108658333D01*
X109375000Y-108625000D01*
X109325000Y-108608333D01*
X109291666Y-108608333D01*
X109241666Y-108625000D01*
X109225000Y-108641667D01*
X108891666Y-108958333D02*
X109091666Y-108958333D01*
X108991666Y-108958333D02*
X108991666Y-108608333D01*
X109025000Y-108658333D01*
X109058333Y-108691667D01*
X109091666Y-108708333D01*
X108775000Y-108608333D02*
X108541667Y-108608333D01*
X108691667Y-108958333D01*
X126725000Y-112325000D02*
X126741666Y-112341667D01*
X126791666Y-112358333D01*
X126825000Y-112358333D01*
X126875000Y-112341667D01*
X126908333Y-112308333D01*
X126925000Y-112275000D01*
X126941666Y-112208333D01*
X126941666Y-112158333D01*
X126925000Y-112091667D01*
X126908333Y-112058333D01*
X126875000Y-112025000D01*
X126825000Y-112008333D01*
X126791666Y-112008333D01*
X126741666Y-112025000D01*
X126725000Y-112041667D01*
X126391666Y-112358333D02*
X126591666Y-112358333D01*
X126491666Y-112358333D02*
X126491666Y-112008333D01*
X126525000Y-112058333D01*
X126558333Y-112091667D01*
X126591666Y-112108333D01*
X126191667Y-112158333D02*
X126225000Y-112141667D01*
X126241667Y-112125000D01*
X126258333Y-112091667D01*
X126258333Y-112075000D01*
X126241667Y-112041667D01*
X126225000Y-112025000D01*
X126191667Y-112008333D01*
X126125000Y-112008333D01*
X126091667Y-112025000D01*
X126075000Y-112041667D01*
X126058333Y-112075000D01*
X126058333Y-112091667D01*
X126075000Y-112125000D01*
X126091667Y-112141667D01*
X126125000Y-112158333D01*
X126191667Y-112158333D01*
X126225000Y-112175000D01*
X126241667Y-112191667D01*
X126258333Y-112225000D01*
X126258333Y-112291667D01*
X126241667Y-112325000D01*
X126225000Y-112341667D01*
X126191667Y-112358333D01*
X126125000Y-112358333D01*
X126091667Y-112341667D01*
X126075000Y-112325000D01*
X126058333Y-112291667D01*
X126058333Y-112225000D01*
X126075000Y-112191667D01*
X126091667Y-112175000D01*
X126125000Y-112158333D01*
D14*
X114761905Y-112852381D02*
X114761905Y-113661905D01*
X114714286Y-113757143D01*
X114666667Y-113804762D01*
X114571429Y-113852381D01*
X114380952Y-113852381D01*
X114285714Y-113804762D01*
X114238095Y-113757143D01*
X114190476Y-113661905D01*
X114190476Y-112852381D01*
X113809524Y-112852381D02*
X113190476Y-112852381D01*
X113523810Y-113233333D01*
X113380952Y-113233333D01*
X113285714Y-113280952D01*
X113238095Y-113328571D01*
X113190476Y-113423810D01*
X113190476Y-113661905D01*
X113238095Y-113757143D01*
X113285714Y-113804762D01*
X113380952Y-113852381D01*
X113666667Y-113852381D01*
X113761905Y-113804762D01*
X113809524Y-113757143D01*
X122261905Y-107052381D02*
X122261905Y-107861905D01*
X122214286Y-107957143D01*
X122166667Y-108004762D01*
X122071429Y-108052381D01*
X121880952Y-108052381D01*
X121785714Y-108004762D01*
X121738095Y-107957143D01*
X121690476Y-107861905D01*
X121690476Y-107052381D01*
X120785714Y-107385714D02*
X120785714Y-108052381D01*
X121023810Y-107004762D02*
X121261905Y-107719048D01*
X120642857Y-107719048D01*
X116902381Y-67166667D02*
X117616667Y-67166667D01*
X117759524Y-67119047D01*
X117854762Y-67023809D01*
X117902381Y-66880952D01*
X117902381Y-66785714D01*
X117902381Y-68166667D02*
X117902381Y-67595238D01*
X117902381Y-67880952D02*
X116902381Y-67880952D01*
X117045238Y-67785714D01*
X117140476Y-67690476D01*
X117188095Y-67595238D01*
M02*
