G04 #@! TF.FileFunction,Soldermask,Top*
%FSLAX46Y46*%
G04 Gerber Fmt 4.6, Leading zero omitted, Abs format (unit mm)*
G04 Created by KiCad (PCBNEW 4.0.7) date 05/16/18 21:08:28*
%MOMM*%
%LPD*%
G01*
G04 APERTURE LIST*
%ADD10C,0.100000*%
%ADD11R,1.600000X0.760000*%
%ADD12C,3.200000*%
%ADD13R,0.800000X1.000000*%
%ADD14C,1.524000*%
%ADD15R,4.000000X2.500000*%
%ADD16R,1.700000X1.700000*%
%ADD17O,1.700000X1.700000*%
%ADD18C,1.400000*%
%ADD19O,1.400000X1.400000*%
%ADD20R,0.406400X1.270000*%
%ADD21R,0.760000X1.600000*%
%ADD22C,1.300000*%
%ADD23O,1.200000X3.100000*%
%ADD24O,3.100000X1.200000*%
%ADD25C,1.600000*%
G04 APERTURE END LIST*
D10*
D11*
X108190000Y-77000000D03*
X115810000Y-77000000D03*
D12*
X103500000Y-116500000D03*
D13*
X123400000Y-98350000D03*
X123400000Y-96650000D03*
D14*
X121300000Y-81600000D03*
X121300000Y-77600000D03*
X128600000Y-77600000D03*
X128600000Y-81600000D03*
D13*
X124700000Y-98350000D03*
X124700000Y-96650000D03*
X122100000Y-96650000D03*
X122100000Y-98350000D03*
X120300000Y-85250000D03*
X120300000Y-86950000D03*
X121700000Y-86950000D03*
X121700000Y-85250000D03*
D15*
X120950000Y-106000000D03*
X127050000Y-106000000D03*
X115550000Y-115000000D03*
X109450000Y-115000000D03*
X115550000Y-106000000D03*
X109450000Y-106000000D03*
X120950000Y-115000000D03*
X127050000Y-115000000D03*
D16*
X104500000Y-111600000D03*
D17*
X101960000Y-111600000D03*
X104500000Y-109060000D03*
X101960000Y-109060000D03*
X104500000Y-106520000D03*
X101960000Y-106520000D03*
X104500000Y-103980000D03*
X101960000Y-103980000D03*
X104500000Y-101440000D03*
X101960000Y-101440000D03*
X104500000Y-98900000D03*
X101960000Y-98900000D03*
X104500000Y-96360000D03*
X101960000Y-96360000D03*
X104500000Y-93820000D03*
X101960000Y-93820000D03*
X104500000Y-91280000D03*
X101960000Y-91280000D03*
X104500000Y-88740000D03*
X101960000Y-88740000D03*
X104500000Y-86200000D03*
X101960000Y-86200000D03*
X104500000Y-83660000D03*
X101960000Y-83660000D03*
X104500000Y-81120000D03*
X101960000Y-81120000D03*
X104500000Y-78580000D03*
X101960000Y-78580000D03*
X104500000Y-76040000D03*
X101960000Y-76040000D03*
X104500000Y-73500000D03*
X101960000Y-73500000D03*
X104500000Y-70960000D03*
X101960000Y-70960000D03*
X104500000Y-68420000D03*
X101960000Y-68420000D03*
X104500000Y-65880000D03*
X101960000Y-65880000D03*
X104500000Y-63340000D03*
X101960000Y-63340000D03*
D18*
X123800000Y-85200000D03*
D19*
X123800000Y-77580000D03*
D18*
X126200000Y-85200000D03*
D19*
X126200000Y-77580000D03*
D20*
X120079000Y-94567000D03*
X120714000Y-94567000D03*
X121374400Y-94567000D03*
X122034800Y-94567000D03*
X122669800Y-94567000D03*
X123330200Y-94567000D03*
X123990600Y-94567000D03*
X124625600Y-94567000D03*
X125286000Y-94567000D03*
X125921000Y-94567000D03*
X125921000Y-89233000D03*
X125286000Y-89233000D03*
X124625600Y-89233000D03*
X123990600Y-89233000D03*
X123330200Y-89233000D03*
X122669800Y-89233000D03*
X122034800Y-89233000D03*
X121374400Y-89233000D03*
X120714000Y-89233000D03*
X120079000Y-89233000D03*
D21*
X108000000Y-82190000D03*
X108000000Y-89810000D03*
X116000000Y-82190000D03*
X116000000Y-89810000D03*
D11*
X108190000Y-71000000D03*
X115810000Y-71000000D03*
X108190000Y-99000000D03*
X115810000Y-99000000D03*
X108190000Y-94000000D03*
X115810000Y-94000000D03*
D12*
X103500000Y-58500000D03*
D22*
X123950000Y-66500000D03*
D23*
X118950000Y-66500000D03*
X121450000Y-66500000D03*
X126450000Y-66500000D03*
X128950000Y-66500000D03*
D24*
X123950000Y-61500000D03*
D22*
X118950000Y-61500000D03*
X128950000Y-61500000D03*
X128950000Y-71500000D03*
X118950000Y-71500000D03*
D25*
X123950000Y-71500000D03*
X121450000Y-71500000D03*
X126450000Y-71500000D03*
X126450000Y-74000000D03*
X123950000Y-74000000D03*
X121450000Y-74000000D03*
M02*
