M48
;DRILL file {KiCad 4.0.7} date 05/16/18 21:08:34
;FORMAT={-:-/ absolute / metric / decimal}
FMAT,2
METRIC,TZ
T1C0.400
T2C0.700
T3C0.762
T4C0.800
T5C1.000
T6C1.300
T7C3.200
%
G90
G05
M71
T1
X106.25Y-110.05
X106.6Y-113.9
X106.85Y-94.25
X107.95Y-83.65
X108.Y-91.3
X108.95Y-110.45
X115.3Y-108.2
X115.4Y-84.
X116.Y-91.4
X116.55Y-102.2
X116.6Y-77.05
X116.6Y-93.95
X116.6Y-99.
X117.15Y-112.1
X117.4Y-92.45
X117.9Y-81.2
X118.Y-112.4
X118.95Y-112.7
X119.15Y-87.35
X120.1Y-96.2
X120.3Y-107.65
X120.45Y-93.45
X121.05Y-90.4
X122.75Y-90.4
X122.85Y-87.65
X122.85Y-92.95
X123.6Y-86.85
X123.65Y-95.7
X125.45Y-90.4
X127.05Y-97.008
X127.05Y-102.5
X128.2Y-112.4
T2
X123.8Y-77.58
X123.8Y-85.2
X126.2Y-77.58
X126.2Y-85.2
T3
X121.3Y-77.6
X121.3Y-81.6
X128.6Y-77.6
X128.6Y-81.6
T5
X101.96Y-63.34
X101.96Y-65.88
X101.96Y-68.42
X101.96Y-70.96
X101.96Y-73.5
X101.96Y-76.04
X101.96Y-78.58
X101.96Y-81.12
X101.96Y-83.66
X101.96Y-86.2
X101.96Y-88.74
X101.96Y-91.28
X101.96Y-93.82
X101.96Y-96.36
X101.96Y-98.9
X101.96Y-101.44
X101.96Y-103.98
X101.96Y-106.52
X101.96Y-109.06
X101.96Y-111.6
X104.5Y-63.34
X104.5Y-65.88
X104.5Y-68.42
X104.5Y-70.96
X104.5Y-73.5
X104.5Y-76.04
X104.5Y-78.58
X104.5Y-81.12
X104.5Y-83.66
X104.5Y-86.2
X104.5Y-88.74
X104.5Y-91.28
X104.5Y-93.82
X104.5Y-96.36
X104.5Y-98.9
X104.5Y-101.44
X104.5Y-103.98
X104.5Y-106.52
X104.5Y-109.06
X104.5Y-111.6
X121.45Y-71.5
X121.45Y-74.
X123.95Y-71.5
X123.95Y-74.
X126.45Y-71.5
X126.45Y-74.
T6
X118.95Y-61.5
X118.95Y-71.5
X123.95Y-66.5
X128.95Y-61.5
X128.95Y-71.5
T7
X103.5Y-58.5
X103.5Y-116.5
T4
X118.95Y-66.15G85X118.95Y-66.85
G05
X121.45Y-66.15G85X121.45Y-66.85
G05
X124.3Y-61.5G85X123.6Y-61.5
G05
X126.45Y-66.15G85X126.45Y-66.85
G05
X128.95Y-66.15G85X128.95Y-66.85
G05
T0
M30
