G04 #@! TF.FileFunction,Soldermask,Bot*
%FSLAX46Y46*%
G04 Gerber Fmt 4.6, Leading zero omitted, Abs format (unit mm)*
G04 Created by KiCad (PCBNEW 4.0.7) date 05/16/18 21:08:28*
%MOMM*%
%LPD*%
G01*
G04 APERTURE LIST*
%ADD10C,0.100000*%
%ADD11C,3.200000*%
%ADD12C,1.524000*%
%ADD13R,1.000000X0.800000*%
%ADD14R,1.700000X1.700000*%
%ADD15O,1.700000X1.700000*%
%ADD16C,1.400000*%
%ADD17O,1.400000X1.400000*%
%ADD18R,1.560000X0.650000*%
%ADD19C,1.300000*%
%ADD20O,1.200000X3.100000*%
%ADD21O,3.100000X1.200000*%
%ADD22C,1.600000*%
G04 APERTURE END LIST*
D10*
D11*
X103500000Y-116500000D03*
D12*
X121300000Y-81600000D03*
X121300000Y-77600000D03*
X128600000Y-77600000D03*
X128600000Y-81600000D03*
D13*
X122550000Y-92900000D03*
X120850000Y-92900000D03*
X127350000Y-109500000D03*
X125650000Y-109500000D03*
X108150000Y-111500000D03*
X109850000Y-111500000D03*
X108150000Y-109500000D03*
X109850000Y-109500000D03*
X127350000Y-111500000D03*
X125650000Y-111500000D03*
D14*
X104500000Y-111600000D03*
D15*
X101960000Y-111600000D03*
X104500000Y-109060000D03*
X101960000Y-109060000D03*
X104500000Y-106520000D03*
X101960000Y-106520000D03*
X104500000Y-103980000D03*
X101960000Y-103980000D03*
X104500000Y-101440000D03*
X101960000Y-101440000D03*
X104500000Y-98900000D03*
X101960000Y-98900000D03*
X104500000Y-96360000D03*
X101960000Y-96360000D03*
X104500000Y-93820000D03*
X101960000Y-93820000D03*
X104500000Y-91280000D03*
X101960000Y-91280000D03*
X104500000Y-88740000D03*
X101960000Y-88740000D03*
X104500000Y-86200000D03*
X101960000Y-86200000D03*
X104500000Y-83660000D03*
X101960000Y-83660000D03*
X104500000Y-81120000D03*
X101960000Y-81120000D03*
X104500000Y-78580000D03*
X101960000Y-78580000D03*
X104500000Y-76040000D03*
X101960000Y-76040000D03*
X104500000Y-73500000D03*
X101960000Y-73500000D03*
X104500000Y-70960000D03*
X101960000Y-70960000D03*
X104500000Y-68420000D03*
X101960000Y-68420000D03*
X104500000Y-65880000D03*
X101960000Y-65880000D03*
X104500000Y-63340000D03*
X101960000Y-63340000D03*
D16*
X123800000Y-85200000D03*
D17*
X123800000Y-77580000D03*
D16*
X126200000Y-85200000D03*
D17*
X126200000Y-77580000D03*
D18*
X112650000Y-111450000D03*
X112650000Y-110500000D03*
X112650000Y-109550000D03*
X115350000Y-109550000D03*
X115350000Y-111450000D03*
X122850000Y-109550000D03*
X122850000Y-110500000D03*
X122850000Y-111450000D03*
X120150000Y-111450000D03*
X120150000Y-109550000D03*
D11*
X103500000Y-58500000D03*
D19*
X123950000Y-66500000D03*
D20*
X118950000Y-66500000D03*
X121450000Y-66500000D03*
X126450000Y-66500000D03*
X128950000Y-66500000D03*
D21*
X123950000Y-61500000D03*
D19*
X118950000Y-61500000D03*
X128950000Y-61500000D03*
X128950000Y-71500000D03*
X118950000Y-71500000D03*
D22*
X123950000Y-71500000D03*
X121450000Y-71500000D03*
X126450000Y-71500000D03*
X126450000Y-74000000D03*
X123950000Y-74000000D03*
X121450000Y-74000000D03*
M02*
